<svg xmlns="http://www.w3.org/2000/svg" viewBox="0 0 148.11 147.11"><defs><style>.cls-1{fill:#020204;}.cls-2{fill:#ff847c;}</style></defs><title>Star 2</title><path class="cls-1" d="M147.12,55.1a13.78,13.78,0,0,0-13.23-8.79l-1.47,0a14,14,0,0,0-1-5.91,13.78,13.78,0,0,0-13.23-8.79l-30,.65a15.8,15.8,0,0,1-5.92-1l-10.75-12a14,14,0,0,0-6.06-4L55.89,4.64a13.9,13.9,0,0,0-24.25,9.58l.64,30A16,16,0,0,1,27,56.52l-22.31,20a13.9,13.9,0,0,0,9.58,24.25l1.48,0a14,14,0,0,0,1,5.91,13.78,13.78,0,0,0,13.23,8.79l30-.64a16,16,0,0,1,5.93,1l10.74,12a13.85,13.85,0,0,0,6.06,4l9.61,10.71a13.77,13.77,0,0,0,10.29,4.63,14,14,0,0,0,5.17-1,13.78,13.78,0,0,0,8.79-13.23l-.64-30a16,16,0,0,1,5.33-12.3l22.32-20A13.8,13.8,0,0,0,147.12,55.1Z"/><path class="cls-2" d="M80.27,124.47l-20-22.32a21.1,21.1,0,0,0-16.14-7l-30,.64A8.9,8.9,0,0,1,8,80.27l22.31-20a21.1,21.1,0,0,0,7-16.14l-.64-30A8.9,8.9,0,0,1,52.17,8l20,22.31a21,21,0,0,0,16.13,7l30-.64a8.9,8.9,0,0,1,6.14,15.53l-22.32,20a21.07,21.07,0,0,0-7,16.13l.64,30A8.9,8.9,0,0,1,80.27,124.47Z"/></svg>