<svg xmlns="http://www.w3.org/2000/svg" viewBox="0 0 85.69 85.11"><defs><style>.cls-1{fill:#020204;}.cls-2{fill:#d0d1ff;}</style></defs><title>Star</title><path class="cls-1" d="M85.12,31.88a8,8,0,0,0-7.66-5.09l-.85,0a8.06,8.06,0,0,0-8.21-8.5l-17.35.37a9.24,9.24,0,0,1-3.43-.58L41.4,11.17a8,8,0,0,0-3.5-2.29l-5.56-6.2a8,8,0,0,0-14,5.55l.37,17.35a9.29,9.29,0,0,1-3.09,7.12L2.68,44.29a8,8,0,0,0,5.55,14l.85,0a8.15,8.15,0,0,0,.56,3.42,8,8,0,0,0,7.65,5.09l17.35-.37a9.29,9.29,0,0,1,3.44.58L44.29,74a8.06,8.06,0,0,0,3.51,2.29l5.56,6.19a7.94,7.94,0,0,0,6,2.68,8.07,8.07,0,0,0,8.08-8.23L67,59.54a9.3,9.3,0,0,1,3.09-7.12L83,40.82A8,8,0,0,0,85.12,31.88Z"/><path class="cls-2" d="M46.44,72,34.85,59.1a12.18,12.18,0,0,0-9.33-4l-17.35.37a5.16,5.16,0,0,1-3.56-9L17.53,34.85a12.18,12.18,0,0,0,4-9.33L21.2,8.17a5.15,5.15,0,0,1,9-3.56l11.6,12.92a12.18,12.18,0,0,0,9.33,4l17.35-.37a5.15,5.15,0,0,1,3.55,9L59.1,41.78a12.18,12.18,0,0,0-4,9.33l.37,17.35A5.15,5.15,0,0,1,46.44,72Z"/></svg>