<svg xmlns="http://www.w3.org/2000/svg" viewBox="0 0 828.05 684.69"><defs><style>.cls-1{fill:#f0f0f0;}.cls-2{fill:#fff;}.cls-3{fill:#eaf0ff;}.cls-10,.cls-4,.cls-6,.cls-7,.cls-9{fill:none;stroke-linecap:round;stroke-linejoin:round;stroke-width:2px;}.cls-4{stroke:#000000;}.cls-5{fill:#d8dfff;}.cls-6{stroke:#d8dfff;}.cls-7{stroke:#fff;}.cls-8{fill:#ff697c;}.cls-9{stroke:#b2c3fb;}.cls-10{stroke:#b6c6fc;}.cls-11{fill:#3b3744;}.cls-12{fill:#46dbc9;}.cls-13{fill:#ecc953;}.cls-14{fill:#000000;}.cls-15{fill:#b2c3fb;}</style></defs><title>drawkit-grape-pack-illustration-15</title><g id="Layer_2" data-name="Layer 2"><g id="vector"><path class="cls-1" d="M474.51,571.6c-79.18,4.15-154,30.44-221.67,11.94s-127.93-82-139.35-152.5c-11.43-70.29,25.78-147.55,74-199.83,48-52.29,107.1-79.59,164.23-100.32S464,95.9,535.39,92.26s158.87,3.54,187.19,49.25-2.43,129.64-12.64,213.07.2,166.05-36.41,198.42S553.7,567.46,474.51,571.6Z"/><path class="cls-2" d="M423.47,411.4c5.26.77,19.43,3.07,19.43,3.07l22.75,10.14,30.25-55-38,22.41-18.82-10.65"/><polygon class="cls-3" points="202.6 532.55 48.53 532.55 0 280.58 154.07 280.58 202.6 532.55"/><path class="cls-4" d="M332.28,349c47.26,12.39,97.47,27,97.47,27-3.28,7.08-14.55,33.26-14.55,33.26L170.78,433.08c3.82-13.46,58.92-101.2,82.93-101.2,6.48,0,22.29,3.21,41.91,7.91"/><line class="cls-4" x1="453.93" y1="371.44" x2="467.43" y2="406.34"/><line class="cls-4" x1="431.33" y1="372.14" x2="412.44" y2="415.63"/><line class="cls-4" x1="437.38" y1="372.14" x2="418.49" y2="415.63"/><line class="cls-4" x1="458.69" y1="368.14" x2="472.19" y2="403.04"/><path class="cls-4" d="M419.47,407.4c5.26.77,19.43,3.07,19.43,3.07l22.75,10.14,30.25-55-38,22.41-18.82-10.65"/><rect class="cls-5" x="279.14" y="417.28" width="496.73" height="10.98"/><line class="cls-6" x1="305.01" y1="679.69" x2="366.86" y2="428.26"/><line class="cls-6" x1="365.22" y1="683.69" x2="427.93" y2="428.77"/><line class="cls-6" x1="463.27" y1="570.14" x2="428.5" y2="428.77"/><line class="cls-6" x1="491.21" y1="683.69" x2="473.84" y2="613.1"/><line class="cls-6" x1="431" y1="683.69" x2="368.29" y2="428.77"/><line class="cls-6" x1="580.69" y1="679.69" x2="642.54" y2="428.26"/><line class="cls-6" x1="684.54" y1="506.29" x2="703.62" y2="428.77"/><line class="cls-6" x1="640.9" y1="683.69" x2="664.65" y2="587.16"/><line class="cls-6" x1="766.89" y1="683.69" x2="704.18" y2="428.77"/><line class="cls-6" x1="706.68" y1="683.69" x2="643.97" y2="428.77"/><line class="cls-4" x1="48.53" y1="532.55" x2="231.75" y2="532.55"/><line class="cls-4" x1="140.14" y1="656.23" x2="140.14" y2="672.93"/><line class="cls-4" x1="140.14" y1="610.82" x2="140.14" y2="622.62"/><line class="cls-4" x1="140.14" y1="532.55" x2="140.14" y2="598.95"/><line class="cls-4" x1="110.35" y1="672.93" x2="169.93" y2="672.93"/><rect class="cls-5" x="463.89" y="49.73" width="256.02" height="256.02"/><rect class="cls-2" x="485.28" y="96.04" width="158.66" height="41.54" rx="18.52"/><circle class="cls-2" cx="677.75" cy="116.8" r="20.77"/><line class="cls-7" x1="485.28" y1="160.91" x2="698.52" y2="160.91"/><line class="cls-7" x1="485.28" y1="191.59" x2="698.52" y2="191.59"/><line class="cls-7" x1="485.28" y1="222.27" x2="593.32" y2="222.27"/><rect class="cls-5" x="360.89" y="218.34" width="62.24" height="62.24" rx="12"/><circle class="cls-8" cx="419.76" cy="218.08" r="15.68"/><rect class="cls-3" x="348.09" width="238.43" height="83.11"/><line class="cls-9" x1="389.04" y1="24.55" x2="545.57" y2="24.55"/><line class="cls-9" x1="389.04" y1="58.56" x2="462.06" y2="58.56"/><polygon class="cls-10" points="255.74 114.58 233.74 165.24 288.61 158.97 255.74 114.58"/><rect class="cls-10" x="772.15" y="71.81" width="23.52" height="46.38" transform="translate(507.27 834.6) rotate(-76.4)"/><path class="cls-11" d="M90.57,474.83c.61,6.81,12,61.72,48.11,61.72,53.68,0,141.09-67.76,170.23-90.52,18.62-3.79,159-44,159-44-2.59-7.76-8.11-22.07-8.11-22.07s-128.69,8.15-151.5,11.95-129.66,37-134.84,38.49S90.57,474.83,90.57,474.83Z"/><path class="cls-11" d="M174.78,437.08c3.82-13.46,58.92-101.2,82.93-101.2s176,44.11,176,44.11c-3.28,7.08-14.55,33.26-14.55,33.26Z"/><path class="cls-4" d="M321.47,385.93c-7.66.74-13.68,1.43-17.19,2-22.8,3.8-129.66,37-134.84,38.49s-82.87,44.4-82.87,44.4c.61,6.81,12,61.72,48.11,61.72,25.7,0,59.13-15.53,90.2-34.22"/><path class="cls-4" d="M260.68,475c18.85-13.17,34.67-25.48,44.23-32.94,18.62-3.79,159-44,159-44-2.59-7.76-8.11-22.07-8.11-22.07s-44,2.79-85.08,5.86"/><path class="cls-2" d="M159.14,326c4.29,5.4,11.27,17.94,12.86,21.75,8.25-3.34,84-31,90.47-32.38s33.33-6.83,36.19,13c-4.92,4.13-16.19.47-24.6,2.3S175,385.07,168.64,386.48s-42.67-10-42.67-10S143,328.68,159.14,326Z"/><path class="cls-12" d="M117.68,272.45c19.09,0,43.81,34.39,48.39,47.86-2.62,5.49-12.69,14.78-15.7,15.56S95.71,272.45,117.68,272.45Z"/><path class="cls-4" d="M159.56,310.58a45.35,45.35,0,0,1,2.51,5.73c-2.62,5.49-12.69,14.78-15.7,15.56s-54.66-63.42-32.69-63.42c12.37,0,27.11,14.44,37.19,28.27"/><path class="cls-4" d="M255.44,333.57c-28.12,14.73-85.8,47.8-90.8,48.91-6.32,1.4-42.67-10-42.67-10s17-47.78,33.17-50.48c4.29,5.4,11.27,17.94,12.86,21.75,2-.82,8.08-3.09,16.17-6.07"/><path class="cls-4" d="M212.88,327.19c21.12-7.63,42.29-15.12,45.59-15.84,6.51-1.43,33.33-6.83,36.19,13-4.92,4.13-16.19.47-24.6,2.3"/><path class="cls-12" d="M120,278c34,24.55,45.7,96.6,58,151.19-10.33,11.59-73.71,52-87.56,48.89-30.83-75-68.51-208.69,3.09-208.69A44.23,44.23,0,0,1,120,278"/><path class="cls-4" d="M83.09,465.78C53,389.67,20.49,265.39,89.52,265.39c14.68,0,26.46,6.55,36.13,17.43"/><path class="cls-4" d="M141.68,308.15c15.58,33,23.8,79.21,32.31,117-4.92,5.51-21.85,17.55-39.74,28.32"/><path class="cls-2" d="M44.19,368.29c-.49,7.23-7.55,110.79-4.91,147.15,1.24,17.11,6.66,29.33,6.77,35.18.42,20.8,16.86,31.36,23.2,31.36s7.07-2.17,7.07-4.71S63.09,547.18,63.09,537,80,379.14,81.94,370.44,44.19,368.29,44.19,368.29Z"/><path class="cls-4" d="M59.21,530.55c1.51-21.93,16.84-155.84,18.73-164.11,2-8.7-37.75-2.15-37.75-2.15-.26,3.77-2.3,33.73-3.82,66.7"/><path class="cls-4" d="M34.79,478.24c-.21,13.25-.11,24.95.49,33.2,1.24,17.11,6.66,29.33,6.77,35.18.42,20.8,16.86,31.36,23.2,31.36s7.07-2.17,7.07-4.71c0-1.18-2.88-7.81-5.95-15.57"/><path class="cls-12" d="M72.54,288c22.89,1.19,19.89,82.44,12.49,85.43s-42.83-.7-46.53-5.81S41.08,286.4,72.54,288Z"/><path class="cls-2" d="M65.93,244.9c2.58,7.8,5.73,26.63,5.66,32.36,4.08,2,15.89,2.72,20.55-.79-1.86-5.08-3.72-17.18-3.58-25.05S65.93,244.9,65.93,244.9Z"/><path class="cls-4" d="M87.11,269a97.09,97.09,0,0,1-2.55-21.56c.14-7.88-22.63-6.52-22.63-6.52,2.58,7.8,5.73,26.63,5.66,32.36,2.68,1.32,8.69,2.08,13.82,1.45"/><circle class="cls-2" cx="84.56" cy="232.15" r="26.92"/><path class="cls-4" d="M103.49,242.27a27,27,0,0,1-31,11.55"/><path class="cls-4" d="M60.56,246.17a26.92,26.92,0,1,1,46.93-18,27.79,27.79,0,0,1-.3,4"/><path class="cls-13" d="M109.28,211.4c-9.26,13-29.86,14.12-34,14.12S70.16,237.1,64.83,237.1s-19-3.48-19-19.45c0-11.81,9.26-17.94,22.34-22,10.28-3.19,32.18-10,38.89-10,11.23,0,17,11.11,17,22,0,9.37-2.76,13.81-13.48,17.67"/><path class="cls-4" d="M70.44,189.73c11.16-3.4,27.09-8,32.64-8,11.23,0,17,11.11,17,22,0,9.37-2.76,13.81-13.48,17.67"/><path class="cls-4" d="M81.32,220.49a59,59,0,0,1-10.07,1c-4.17,0-5.09,11.58-10.42,11.58s-19-3.48-19-19.45a19.26,19.26,0,0,1,.73-5.4"/><path class="cls-4" d="M105.28,207.4a29.94,29.94,0,0,1-12.72,9.74"/><circle class="cls-2" cx="65.55" cy="234.23" r="6.89"/><path class="cls-4" d="M63.55,239.12a6.89,6.89,0,1,1,4.86-11.78"/><path class="cls-4" d="M76.2,370.35c-12.22,1-38.54-2.35-41.7-6.71-1.77-2.45-1.26-21.19,3.22-39.87"/><path class="cls-4" d="M48.1,297.05c5.14-8.12,11.85-13.47,20.44-13,18.6,1,20.11,54.78,16,76.54"/><polyline class="cls-2" points="473.68 399.55 489.53 393.67 507.99 391.89 487.9 333.38 480.77 370.65 465.1 377.37"/><polyline class="cls-4" points="478.11 360.66 476.77 367.65 461.1 374.37"/><polyline class="cls-4" points="496.9 368.25 483.9 330.38 479.74 352.11"/><polyline class="cls-4" points="469.68 396.55 485.53 390.67 503.99 388.89"/><path class="cls-4" d="M93,227.34c0,2.63,1.59,7.38,4,9.15"/><ellipse class="cls-14" cx="100.68" cy="224.92" rx="1.69" ry="3.23"/><path class="cls-4" d="M83.27,240.27c1.26,1.52,4.74,3.62,7.16,3.62"/><rect class="cls-3" x="689.8" y="207.44" width="138.25" height="181.81"/><rect class="cls-5" x="689.8" y="207.44" width="138.25" height="25.18"/><circle class="cls-15" cx="705.14" cy="219.85" r="6.23"/><circle class="cls-15" cx="724.11" cy="219.85" r="6.23"/><circle class="cls-15" cx="743.09" cy="219.85" r="6.23"/><rect class="cls-5" x="706.56" y="253.17" width="38.2" height="53"/><line class="cls-9" x1="758.01" y1="253.17" x2="809.81" y2="253.17"/><line class="cls-9" x1="706.56" y1="335.25" x2="809.81" y2="335.25"/><line class="cls-9" x1="706.56" y1="362.61" x2="809.81" y2="362.61"/><line class="cls-9" x1="758.01" y1="280.53" x2="809.81" y2="280.53"/><line class="cls-9" x1="758.01" y1="307.89" x2="809.81" y2="307.89"/></g></g></svg>