<svg id="svg-img" xmlns="http://www.w3.org/2000/svg" width="822.03371" height="595.29136" viewBox="0 0 822.03371 595.29136" xmlns:xlink="http://www.w3.org/1999/xlink"><path d="M883.8498,159.09659v221.92c-.67-.68-1.33-1.36-2-2.04q-.6141-.62445-1.23262-1.24728A242.55886,242.55886,0,0,0,669.8297,309.33386C642.31535,313.77622,616.46106,320.58059,601,331c-116.27782,78.36114-248.2102,3.68655-285.1502-17.19339-.67-.37006-1.34-.75-2-1.14v-153.57a7,7,0,0,1,7-7h556A7,7,0,0,1,883.8498,159.09659Z" transform="translate(-188.64294 -152.09659)" fill="#3f3d56"/><path d="M602.34982,492.25189l-15.01233,3.39428c-1.74152,9.88731-1.42259,50.04715-1.42259,50.04715l-1.29253,38.42687a6.79514,6.79514,0,1,0,11.71688.99056l1.952-47.39255Z" transform="translate(-188.64294 -152.09659)" fill="#ffb6b6"/><path d="M585.00081,453.59965h0a16.2388,16.2388,0,0,1,19.63421,15.4655l.24729,9.71458s3.80023,49.51244.307,59.18277l-4.95692,27.92115-15.91953,2.032-.78361-29.37537s4.70227-32.4296-.40053-37.69143c-3.12506-3.22245-8.11371-16.568-10.61681-28.01794A16.19724,16.19724,0,0,1,585.00081,453.59965Z" transform="translate(-188.64294 -152.09659)" fill="#ff697c"/><path d="M473.25384,716.003a.55145.55145,0,0,1-.52167-.37239L449.89771,551.339,404.162,715.76425a.55176.55176,0,0,1-.90862-.62622L449.60885,549.8122a.55994.55994,0,0,1,.52868-.23389.55279.55279,0,0,1,.4473.36754l23.19068,165.32583a.55214.55214,0,0,1-.52167.73131Z" transform="translate(-188.64294 -152.09659)" fill="#e6e6e6"/><path d="M440.40415,716.003a.55092.55092,0,0,1-.547-.63l9.65955-165.32582a.552.552,0,1,1,1.09292.15628l-9.65955,165.32583A.55259.55259,0,0,1,440.40415,716.003Z" transform="translate(-188.64294 -152.09659)" fill="#e6e6e6"/><path d="M524.5727,518.4103A7.17918,7.17918,0,0,1,521.553,526.171a6.96214,6.96214,0,0,1-1.20488.63676L417.77829,569.03228a7.181,7.181,0,0,1-9.369-3.90355,7.10356,7.10356,0,0,1-.31973-.96633,7.17524,7.17524,0,0,1,4.2246-8.39741L514.884,513.54043a.37056.37056,0,0,1,.07336-.02422,7.17123,7.17123,0,0,1,9.61533,4.89409Z" transform="translate(-188.64294 -152.09659)" fill="#e6e6e6"/><path d="M420.98859,541.65863h0a3.03517,3.03517,0,0,1,3.03517,3.03517v8.27778a3.03518,3.03518,0,0,1-3.03518,3.03518h0a3.03518,3.03518,0,0,1-3.03518-3.03518v-8.27776a3.03519,3.03519,0,0,1,3.03519-3.03519Z" transform="translate(-310.93604 -31.39206) rotate(-14.27001)" fill="#e6e6e6"/><path d="M413.35392,540.75074h12.14074a1.93148,1.93148,0,0,1,1.93148,1.93148v0a1.93148,1.93148,0,0,1-1.93148,1.93148H413.35394a1.93149,1.93149,0,0,1-1.93149-1.93149v0a1.93147,1.93147,0,0,1,1.93147-1.93147Z" transform="translate(-309.46722 -31.96875) rotate(-14.26987)" fill="#e6e6e6"/><path d="M408.53223,565.64428a7.17919,7.17919,0,0,1,1.3738-8.21336,9.377,9.377,0,0,1,8.23938,5.26147,9.27644,9.27644,0,0,1,.7981,5.78248,7.17125,7.17125,0,0,1-10.41128-2.83059Z" transform="translate(-188.64294 -152.09659)" fill="#ccc"/><ellipse cx="566.83523" cy="724.33371" rx="1.43913" ry="9.45714" transform="translate(-367.67921 1110.41664) rotate(-87.76678)" fill="#e6e6e6"/><ellipse cx="626.69577" cy="729.90857" rx="1.43913" ry="9.45714" transform="translate(-315.72189 1175.58936) rotate(-87.76678)" fill="#3f3d56"/><ellipse cx="542.60536" cy="733.65043" rx="1.43913" ry="9.45714" transform="translate(-400.27455 1095.15886) rotate(-87.76678)" fill="#ff6584"/><ellipse cx="607.16259" cy="742.64708" rx="1.43913" ry="9.45714" transform="translate(-347.22275 1168.31312) rotate(-87.76678)" fill="#ff6584"/><ellipse cx="518.42793" cy="736.16137" rx="1.29397" ry="4.20117" transform="matrix(0.00482, -0.99999, 0.99999, 0.00482, -408.86498, 1098.94079)" fill="#e6e6e6"/><ellipse cx="541.65627" cy="741.52125" rx="1.29397" ry="4.20117" transform="translate(-391.10834 1127.50292) rotate(-89.72402)" fill="#e6e6e6"/><ellipse cx="503.6832" cy="743.53487" rx="1.29397" ry="4.20117" transform="translate(-430.91211 1091.5342) rotate(-89.72402)" fill="#3f3d56"/><ellipse cx="583.51329" cy="734.3788" rx="1.29397" ry="4.20117" transform="translate(-342.31057 1162.2514) rotate(-89.72402)" fill="#e6e6e6"/><ellipse cx="556.40553" cy="729.16781" rx="1.29397" ry="4.20117" transform="translate(-364.07683 1129.95807) rotate(-89.72402)" fill="#ff6584"/><ellipse cx="601.46809" cy="726.28487" rx="1.29397" ry="4.20117" transform="translate(-316.34842 1172.15105) rotate(-89.72402)" fill="#3f3d56"/><ellipse cx="567.22135" cy="741.76829" rx="1.29397" ry="4.20117" transform="translate(-365.91344 1153.31355) rotate(-89.72402)" fill="#3f3d56"/><path d="M876.8498,152.09659h-556a7.0077,7.0077,0,0,0-7,7v581a7.01521,7.01521,0,0,0,7,7h556a7.00771,7.00771,0,0,0,7-7v-581A7.00771,7.00771,0,0,0,876.8498,152.09659Zm5,588a5.00181,5.00181,0,0,1-5,5h-556a5.00181,5.00181,0,0,1-5-5v-581a5.00824,5.00824,0,0,1,5-5h556a5.00824,5.00824,0,0,1,5,5Zm-181.5-587.01q-.84-.51-1.68-.99h-58.44c-.42.66-.82,1.33-1.21,2h63.01C701.46979,153.75656,700.90979,153.42661,700.3498,153.08658Zm-386.5,197.47v14.9c.25.02.51.02.76.03l-.5,28.64-.26-.14v2.82l.21.11-.21,12.01v41.4h2v-106.52Q315.0098,347.04657,313.8498,350.55661Zm386.5-197.47q-.84-.51-1.68-.99h-58.44c-.42.66-.82,1.33-1.21,2h63.01C701.46979,153.75656,700.90979,153.42661,700.3498,153.08658Z" transform="translate(-188.64294 -152.09659)" fill="#3f3d56"/><circle cx="618.51686" cy="48.82001" r="10" fill="#ff697c"/><circle cx="490.51686" cy="90.82001" r="2" fill="#ff697c"/><circle cx="388.51686" cy="129.82001" r="2" fill="#ff697c"/><circle cx="275.51686" cy="78.82001" r="2" fill="#ff6584"/><circle cx="323.51686" cy="28.82001" r="2" fill="#fff"/><circle cx="657.51686" cy="17.82001" r="2" fill="#fff"/><circle cx="554.51686" cy="51.82001" r="2" fill="#fff"/><circle cx="672.51686" cy="84.82001" r="2" fill="#fff"/><circle cx="321.51686" cy="117.82001" r="2" fill="#fff"/><circle cx="168.51686" cy="111.82001" r="2" fill="#ff6584"/><polygon points="243.556 134.907 241.67 135.071 241.244 136.916 240.504 135.173 238.618 135.338 240.047 134.096 239.307 132.353 240.93 133.328 242.359 132.086 241.933 133.931 243.556 134.907" fill="#fff"/><polygon points="484.556 28.907 482.67 29.071 482.244 30.916 481.504 29.173 479.618 29.338 481.047 28.096 480.307 26.353 481.93 27.328 483.359 26.086 482.933 27.931 484.556 28.907" fill="#fff"/><polygon points="598.556 109.907 596.67 110.071 596.244 111.916 595.504 110.173 593.618 110.338 595.047 109.096 594.307 107.353 595.93 108.328 597.359 107.086 596.933 108.931 598.556 109.907" fill="#fff"/><polygon points="386.556 86.907 384.67 87.071 384.244 88.916 383.504 87.173 381.618 87.338 383.047 86.096 382.307 84.353 383.93 85.328 385.359 84.086 384.933 85.931 386.556 86.907" fill="#fff"/><polygon points="297.556 175.907 295.67 176.071 295.244 177.916 294.504 176.173 292.618 176.338 294.047 175.096 293.307 173.353 294.93 174.328 296.359 173.086 295.933 174.931 297.556 175.907" fill="#fff"/><polygon points="674.556 173.907 672.67 174.071 672.244 175.916 671.504 174.173 669.618 174.338 671.047 173.096 670.307 171.353 671.93 172.328 673.359 171.086 672.933 172.931 674.556 173.907" fill="#fff"/><polygon points="190.556 57.907 188.67 58.071 188.244 59.916 187.504 58.173 185.618 58.338 187.047 57.096 186.307 55.353 187.93 56.328 189.359 55.086 188.933 56.931 190.556 57.907" fill="#fff"/><path d="M599.30528,511.71809l3.26486-50.57743a8.18066,8.18066,0,0,1,8.58423-7.61861h0a8.18066,8.18066,0,0,1,7.71376,9.02454l-5.002,52.43359-1.69636,31.98873a7.13881,7.13881,0,1,1-8.89061,2.21347Z" transform="translate(-188.64294 -152.09659)" fill="#a0616a"/><path d="M598.5499,472.43934h0a2.41232,2.41232,0,0,1-.26428-2.9122,3.12941,3.12941,0,0,0,.43854-1.858,2.87767,2.87767,0,0,0-.05844-.37321,4.71983,4.71983,0,0,1,1.01757-4.24365c1.66813-1.86294,2.54463-4.74256,2.9721-7.32232a35.59158,35.59158,0,0,1,1.91941-8.34256c1.63-3.79223,5.31746-7.09142,10.12286-5.27587a9.50085,9.50085,0,0,1,4.7928,4.18976c2.28651,3.95566,2.14432,8.63381,1.96548,13.108l.9361-1.73678a36.32507,36.32507,0,0,0,2.08346,14.37586c-1.07679-.24944-1.89623,1.17968-1.58331,2.23971a6.35183,6.35183,0,0,0,2.06055,2.54181c1.01334.95607,1.95192,2.35571.91965,3.72377a2.97426,2.97426,0,0,1-2.10916,1.10916,56.20951,56.20951,0,0,1-22.85986-2.58966c-1.63433-.54067-3.38088-1.27261-4.18686-2.7937S596.83061,472.35351,598.5499,472.43934Z" transform="translate(-188.64294 -152.09659)" fill="#f2f2f2"/><polygon points="477.379 578.297 486.296 578.297 490.539 543.905 477.379 543.905 477.379 578.297" fill="#a0616a"/><path d="M663.11214,724.28671l14.24514-.85025v6.10324l13.54324,9.35345a3.81231,3.81231,0,0,1-2.16628,6.94949H671.77488l-2.92321-6.037-1.14136,6.037H661.316Z" transform="translate(-188.64294 -152.09659)" fill="#2f2e41"/><polygon points="429.441 570.444 437.746 573.69 454.219 543.203 441.962 538.412 429.441 570.444" fill="#a0616a"/><path d="M617.59739,715.7937l13.57717,4.394-2.22186,5.68443,9.20883,13.642a3.81231,3.81231,0,0,1-4.54757,5.684l-15.79563-6.174-.52485-6.68695-3.26081,5.20726-5.95558-2.32784Z" transform="translate(-188.64294 -152.09659)" fill="#2f2e41"/><path d="M623.6913,508.04457h41.59976s15.6659,111.88045,15.71082,112.084-8.84113,3.43484-4.802,7.474l4.03912,4.03912c3.23129,3.2313-2.398,14.27266-2.398,14.27266l6.43715,65.70192H657.68988L644.69473,575.90179l17.5798,65.0639-22.90381,70.65054-16.48724-9.69388-3.2313-8.88607,6.41928-6.41927s1.659-9.64816,1.659-15.34745-4.84694-.85235,0-5.6993c2.097-2.09695,8.00084-27.82786,8.00084-27.82786l-19.31037-61.84061-4.60085-27.605a34.67873,34.67873,0,0,1,3.04571-20.90516C617.424,522.14522,620.64728,515.27412,623.6913,508.04457Z" transform="translate(-188.64294 -152.09659)" fill="#2f2e41"/><path d="M621.26783,439.37953l2.76465-8.29394a9.76025,9.76025,0,0,1,8.65443-6.655l2.45646-.15256a9.76028,9.76028,0,0,1,9.93132,6.86359v0a9.72294,9.72294,0,0,0,8.441,6.84136c7.18006.61172,17.83722,2.78289,17.83722,10.28263,0,11.30954-12.11736,41.199-9.69389,43.6225s8.07824,12.41,4.84695,15.34866c-.84191.76567-.16308,4.448.10648,7.08576.48819,4.777-33.22727-5.78427-42.92116-3.04664s-4.84694-17.77213-6.46259-19.38778a41.01273,41.01273,0,0,1-4.03966-5.91124,9.73009,9.73009,0,0,1-1.19163-3.10658l-2.78234-14.08207c-.04632-.23441-.08341-.46405-.11233-.70123-.36753-3.01412-2.51957-23.29413,5.70249-26.284C623.6913,438.57171,621.26783,439.37953,621.26783,439.37953Z" transform="translate(-188.64294 -152.09659)" fill="#f2f2f2"/><path d="M658.914,513.75751l-1.27246-50.66672a8.18067,8.18067,0,0,1,7.86832-8.356h0A8.18068,8.18068,0,0,1,674,463.0332l-.29171,52.67083,1.17188,32.01224a7.13881,7.13881,0,1,1-8.657,2.99987Z" transform="translate(-188.64294 -152.09659)" fill="#a0616a"/><path d="M653.24522,473.53212v0a2.41231,2.41231,0,0,1-.52373-2.87688,3.12942,3.12942,0,0,0,.27058-1.88978,2.87788,2.87788,0,0,0-.09159-.36648,4.71985,4.71985,0,0,1,.63389-4.31766c1.4948-2.0047,2.1102-4.95117,2.30519-7.55883a35.592,35.592,0,0,1,1.16546-8.48081c1.2842-3.92283,4.66181-7.53865,9.61035-6.16023a9.50079,9.50079,0,0,1,5.14836,3.74424c2.63119,3.73528,2.908,8.40739,3.13013,12.87962l.777-1.81356a36.32516,36.32516,0,0,0,3.36106,14.13186c-1.09479-.15211-1.78311,1.34457-1.37662,2.37237a6.35186,6.35186,0,0,0,2.27966,2.34729c1.0948.8616,2.15481,2.17167,1.24906,3.62659a2.97427,2.97427,0,0,1-2.00149,1.29338,56.20959,56.20959,0,0,1-22.99987-.53443c-1.67614-.3923-3.48116-.96509-4.42-2.408S651.52515,473.60043,653.24522,473.53212Z" transform="translate(-188.64294 -152.09659)" fill="#f2f2f2"/><circle cx="443.75727" cy="255.77959" r="17.77213" fill="#a0616a"/><path d="M615.60728,434.8808c.00952-2.08093,2.74068-3.17059,4.72141-2.519,1.97342.65516,3.39491,2.33461,4.98236,3.67241,1.59094,1.34509,3.79514,2.418,5.69647,1.58031,1.80342-.79885,2.53241-2.93414,3.88317-4.36612a9.09061,9.09061,0,0,1,5.99231-2.43788c-.045-.20276-.09-.40552-.11688-.6081a12.82417,12.82417,0,0,1-.13451-3.24205,9.91371,9.91371,0,0,0,1.76739,2.51733,9.24946,9.24946,0,0,0,1.49426,1.25746,21.95492,21.95492,0,0,0,6.667-.502c2.60879-.76933,5.052-3.07573,4.84733-5.79823a6.404,6.404,0,0,0-3.46211-4.70168c-1.75319-1.01429,4.39263-5.51349,2.56208-6.37319a14.26218,14.26218,0,0,1-7.648-8.17844,10.69048,10.69048,0,0,1,1.47065-9.62476c1.61692-.20459-4.78505.56375-3.25132.00431-.181-1.07121-.25642.72716-.16276-.35215.45335.92931,1.08392-1.1129,1.79564-.37257a6.31233,6.31233,0,0,0,3.0128-3.29434c1.17221-3.12454-.81608-3.73658-3.39664-5.85727a15.98734,15.98734,0,0,0-25.06242,6.6447c-3.91166-1.95668-8.94437-.11272-11.68021,3.30721-2.72508,3.42362-3.55019,7.9967-3.58209,12.37159A41.83207,41.83207,0,0,0,615.60728,434.8808Z" transform="translate(-188.64294 -152.09659)" fill="#2f2e41"/><polygon points="362.459 585.863 354.134 585.862 350.174 553.753 362.46 553.754 362.459 585.863" fill="#ffb6b6"/><path d="M551.39471,746.64316l-25.59861-.001v-.3237a9.96425,9.96425,0,0,1,9.9637-9.96354h.00061l4.6759-3.54736,8.72421,3.54793,2.2346,0Z" transform="translate(-188.64294 -152.09659)" fill="#2f2e41"/><polygon points="400.293 585.863 391.969 585.862 388.009 553.753 400.295 553.754 400.293 585.863" fill="#ffb6b6"/><path d="M589.22887,746.64316l-25.59861-.001v-.3237a9.96424,9.96424,0,0,1,9.96369-9.96354h.00062l4.6759-3.54736,8.72421,3.54793,2.2346,0Z" transform="translate(-188.64294 -152.09659)" fill="#2f2e41"/><path d="M530.86329,531.81269s-13.453,16.68561-10.84462,21.012,6.81213,2.82781,2.60834,7.36049-5.88785,4.58565-2.94393,7.9222,5.50131,76.26413,5.50131,76.26413l13.417,75.88678,14.76654,1.33065s2.75486-9.27483,2.82213-12.86957.06727-.46279.06727-7.91408-2.65681-1.67852-.06727-8.7687,5.818-27.97675,0-38.13206-1.24525-1.24526-1.24525-1.24526l4.50693-68.82241L568.028,654.679s0,24.382,4.20379,42.038l.69512,24.8719,18.1188-.69254s4.72734-7.36418,3.04582-15.77177,5.04455-12.61139,5.04455-16.81518-.35415-44.41459-.35415-44.41459l-3.92908-83.70968s3.44247-19.00857-4.12436-26.5754S530.86329,531.81269,530.86329,531.81269Z" transform="translate(-188.64294 -152.09659)" fill="#2f2e41"/><path d="M546.97914,443.03159l11.61063-13.07351,18.34622,2.03847,11.74582,16.438h0c12.98157,2.98767,15.37543,13.60147,13.09617,26.726-4.55808,26.24646-15.81,44.59266-10.69523,57.54275,7.76412,19.6579,3.99964,34.785-14.58571,32.029s-61.41253-20.95611-49.34081-33.02783,8.37974-27.493,8.37974-27.493l1.374-37.05761c-2.17035-11.76974-1.83547-22.89018,10.06912-24.12222Z" transform="translate(-188.64294 -152.09659)" fill="#ff697c"/><path d="M541.40214,487.91726l-12.935-8.3413c-8.2784,5.67976-36.727,34.02744-36.727,34.02744l-28.33971,25.98375a6.79515,6.79515,0,1,0,7.497,9.05881l35.20251-31.79069Z" transform="translate(-188.64294 -152.09659)" fill="#ffb6b6"/><path d="M556.84992,448.46666l0,0a16.23881,16.23881,0,0,1,2.70638,24.84672l-6.76253,6.97872s-32.68825,37.38184-42.0383,41.659l-23.405,16.01146-12.59764-9.94285,20.42373-21.12813s26.4455-19.35009,26.62916-26.67755c.11248-4.48749,6.14743-17.3937,12.56937-27.198A16.19724,16.19724,0,0,1,556.84992,448.46666Z" transform="translate(-188.64294 -152.09659)" fill="#ff697c"/><circle id="a4725208-37e7-4bba-8b44-e2dd7653a02c" data-name="ab6171fa-7d69-4734-b81c-8dff60f9761b" cx="571.08228" cy="406.59511" r="18.96467" transform="translate(-192.34401 655.84458) rotate(-70.37475)" fill="#ffb6b6"/><path d="M561.2618,384.9765a10.67311,10.67311,0,0,1,3.2142-3.48693,5.2187,5.2187,0,0,1,7.40293,2.38884,5.72256,5.72256,0,0,1,.66459-2.61311,14.5408,14.5408,0,0,0,3.69614,2.7041l-1.98964-4.44c7.544-.57153,12.8692,1.50351,15.26181,7.07609.685,1.59541,3.26069,1.57017,4.01535,3.23373.75473,1.66352-.12053,4.3278-1.878,4.47867,3.37832-.05959,2.34051,2.788,3.33281,6.21631.99237,3.42829.433,7.28431-.67887,10.82207-1.44183,4.58752-5.48849,7.59132-9.43941,9.93845-2.58354,1.53484-7.72838,3.86352-7.7548,3.8774-14.20673,7.45583-23.26442-7.7548-19.88234-22.76845.76382-3.39073,3.53419-7.06716,1.54881-9.6091-1.5457-1.979-4.47321-1.61387-6.92629-1.09053C552.8049,388.41266,559.41349,387.8398,561.2618,384.9765Z" transform="translate(-188.64294 -152.09659)" fill="#2f2e41"/><ellipse cx="789.1854" cy="725.58134" rx="1.43913" ry="10.36015" transform="translate(-155.24007 1333.79695) rotate(-87.76678)" fill="#e6e6e6"/><ellipse cx="854.77371" cy="731.37957" rx="1.43913" ry="10.36015" transform="translate(-98.00137 1404.90775) rotate(-87.76678)" fill="#3f3d56"/><ellipse cx="762.68012" cy="734.80933" rx="1.43913" ry="10.36015" transform="matrix(0.03897, -0.99924, 0.99924, 0.03897, -189.93349, 1316.1802)" fill="#ff6584"/><ellipse cx="833.42561" cy="744.0473" rx="1.43913" ry="10.36015" transform="translate(-131.1757 1395.74996) rotate(-87.76678)" fill="#ff6584"/><ellipse cx="736.20697" cy="737.23075" rx="1.29409" ry="4.60188" transform="translate(-195.77189 1315.17634) rotate(-89.52287)" fill="#e6e6e6"/><ellipse cx="761.66981" cy="742.67776" rx="1.29409" ry="4.60188" transform="translate(-175.96792 1346.03995) rotate(-89.52287)" fill="#e6e6e6"/><ellipse cx="720.0839" cy="744.5505" rx="1.29409" ry="4.60188" transform="matrix(0.00833, -0.99997, 0.99997, 0.00833, -219.08019, 1306.31263)" fill="#3f3d56"/><ellipse cx="807.49087" cy="735.6899" rx="1.29409" ry="4.60188" transform="matrix(0.00833, -0.99997, 0.99997, 0.00833, -123.5408, 1384.92976)" fill="#e6e6e6"/><ellipse cx="777.77931" cy="730.37737" rx="1.29409" ry="4.60188" transform="matrix(0.00833, -0.99997, 0.99997, 0.00833, -147.69259, 1349.95094)" fill="#ff6584"/><ellipse cx="827.12737" cy="727.66155" rx="1.29409" ry="4.60188" transform="translate(-96.03975 1396.60408) rotate(-89.52287)" fill="#3f3d56"/><ellipse cx="789.67315" cy="743.01989" rx="1.29409" ry="4.60188" transform="translate(-148.53988 1374.3816) rotate(-89.52287)" fill="#3f3d56"/><ellipse cx="403.83523" cy="725.33371" rx="1.43913" ry="9.45714" transform="translate(-525.32681 948.50148) rotate(-87.76678)" fill="#e6e6e6"/><ellipse cx="463.69577" cy="730.90857" rx="1.43913" ry="9.45714" transform="translate(-473.36949 1013.67419) rotate(-87.76678)" fill="#3f3d56"/><ellipse cx="379.60536" cy="734.65043" rx="1.43913" ry="9.45714" transform="translate(-557.92215 933.24369) rotate(-87.76678)" fill="#ff6584"/><ellipse cx="444.16259" cy="743.64708" rx="1.43913" ry="9.45714" transform="translate(-504.87035 1006.39796) rotate(-87.76678)" fill="#ff6584"/><ellipse cx="355.42793" cy="737.16137" rx="1.29397" ry="4.20117" transform="matrix(0.00482, -0.99999, 0.99999, 0.00482, -572.07984, 936.93786)" fill="#e6e6e6"/><ellipse cx="378.65627" cy="742.52125" rx="1.29397" ry="4.20117" transform="translate(-554.3232 965.49999) rotate(-89.72402)" fill="#e6e6e6"/><ellipse cx="340.6832" cy="744.53487" rx="1.29397" ry="4.20117" transform="translate(-594.12696 929.53128) rotate(-89.72402)" fill="#3f3d56"/><ellipse cx="420.51329" cy="735.3788" rx="1.29397" ry="4.20117" transform="translate(-505.52543 1000.24848) rotate(-89.72402)" fill="#e6e6e6"/><ellipse cx="393.40553" cy="730.16781" rx="1.29397" ry="4.20117" transform="translate(-527.29168 967.95514) rotate(-89.72402)" fill="#ff6584"/><ellipse cx="438.46809" cy="727.28487" rx="1.29397" ry="4.20117" transform="translate(-479.56328 1010.14812) rotate(-89.72402)" fill="#3f3d56"/><ellipse cx="404.22135" cy="742.76829" rx="1.29397" ry="4.20117" transform="translate(-529.12829 991.31062) rotate(-89.72402)" fill="#3f3d56"/><path d="M876.18429,660.65757a55.36463,55.36463,0,0,1-35.9826-13.28739c-3.34512-2.8634-6.90937-7.84145-10.59347-14.79488a33.835,33.835,0,0,1-1.0731-29.21,38.82526,38.82526,0,0,1-6.41149,5.25893l-1.17218.77992-.06772-1.40554c-.04444-.9142-.06694-1.82531-.06694-2.708,0-5.20179,3.93432-10.4802,2.11985-15.28833-7.64758-20.265-31.90377-40.40441,3.25085-71.76744,3.252-2.90127-1.09215-8.702-1.09215-13.09154,0-43.01875,46.74167-107.55046,78.03214-78.01692,18.26452,17.239,56.31758,29.48533,74.08446,53.46388l.23528.71047-.69334.28049a41.81739,41.81739,0,0,1-11.11079,2.95517,52.98231,52.98231,0,0,0,12.389,1.03789l.64448-.02251.157.6264a78.37326,78.37326,0,0,1,2.32627,18.96513l-.00288.691a34.55612,34.55612,0,0,0,11.41532,25.7662,55.49265,55.49265,0,0,1,18.10442,40.94853c0,9.11983-6.19833,21.09114-11.3982,29.528a16.697,16.697,0,0,1-12.25738,7.85107,16.3061,16.3061,0,0,1-13.15983-4.25124,53.92463,53.92463,0,0,0,9.50959,13.46361l.7095.731-.88091.51327a55.32411,55.32411,0,0,1-27.88951,7.53173l-.57387-.00154c-14.87761,0-28.99935,5.76374-38.74423,15.81373A55.78566,55.78566,0,0,1,876.18429,660.65757Z" transform="translate(-188.64294 -152.09659)" fill="#ff697c"/><path d="M856.6599,747.388a.99568.99568,0,0,1-.98455-.85538c-.04229-.29723-4.18588-30.18131-.46447-69.8985,3.43674-36.67978,14.47351-89.51158,47.53536-132.90148a.99575.99575,0,1,1,1.584,1.20705c-32.77629,43.01522-43.72409,95.45935-47.1366,131.88015-3.69978,39.48609.41132,69.13713.45329,69.43208a.99656.99656,0,0,1-.987,1.13608Z" transform="translate(-188.64294 -152.09659)" fill="#3f3d56"/><path d="M886.8481,603.83822a.99572.99572,0,0,1-.58618-1.80119,137.23532,137.23532,0,0,1,30.29678-15.42272c16.71527-6.11957,42.13333-11.66736,68.30079-3.33918a.99561.99561,0,1,1-.60386,1.89745c-25.63134-8.157-50.58866-2.701-67.01221,3.31195A134.98135,134.98135,0,0,0,887.43267,603.648.99183.99183,0,0,1,886.8481,603.83822Z" transform="translate(-188.64294 -152.09659)" fill="#3f3d56"/><path d="M840.5927,486.23633a.99572.99572,0,0,1,1.7543-.71437,137.236,137.236,0,0,1,17.5645,29.10744c7.30742,16.23118,14.6713,41.18372,8.24919,67.883a.99561.99561,0,1,1-1.936-.46564c6.29-26.15222-.94919-50.65181-8.12924-66.59971a134.98107,134.98107,0,0,0-17.27087-28.64135A.99182.99182,0,0,1,840.5927,486.23633Z" transform="translate(-188.64294 -152.09659)" fill="#3f3d56"/><path d="M283.32778,643.72879c-9.74488-10.05-23.86663-15.81373-38.74423-15.81373l-.57388.00154a55.3241,55.3241,0,0,1-27.8895-7.53173l-.88092-.51327.70951-.731a53.92463,53.92463,0,0,0,9.50959-13.46361,16.30611,16.30611,0,0,1-13.15983,4.25124,16.697,16.697,0,0,1-12.25738-7.85107c-5.19987-8.43688-11.3982-20.40819-11.3982-29.528a55.49262,55.49262,0,0,1,18.10442-40.94853,34.55612,34.55612,0,0,0,11.41532-25.7662l-.00289-.691a78.37327,78.37327,0,0,1,2.32628-18.96513l.157-.6264.64448.02251a52.98222,52.98222,0,0,0,12.389-1.03789,41.81742,41.81742,0,0,1-11.11078-2.95517l-.69334-.28049.23528-.71047c17.76687-23.97855,55.81994-36.22489,74.08446-53.46388,31.29047-29.53354,78.03213,34.99817,78.03213,78.01692,0,4.38956-4.34415,10.19027-1.09214,13.09154,35.15462,31.363,10.89843,51.50241,3.25085,71.76744-1.81447,4.80813,2.11985,10.08654,2.11985,15.28833,0,.88265-.02251,1.79376-.06695,2.708l-.06772,1.40554-1.17217-.77992a38.82443,38.82443,0,0,1-6.41149-5.25893,33.835,33.835,0,0,1-1.0731,29.21c-3.68411,6.95343-7.24835,11.93148-10.59348,14.79488a55.31262,55.31262,0,0,1-75.79011-3.64139Z" transform="translate(-188.64294 -152.09659)" fill="#ff697c"/><path d="M342.65969,747.388a.99567.99567,0,0,0,.98454-.85538c.0423-.29723,4.18589-30.18131.46448-69.8985-3.43674-36.67978-14.47351-89.51158-47.53536-132.90148a.99575.99575,0,1,0-1.584,1.20705c32.77629,43.01522,43.72408,95.45935,47.1366,131.88015,3.69977,39.48609-.41132,69.13713-.4533,69.43208a.99657.99657,0,0,0,.98706,1.13608Z" transform="translate(-188.64294 -152.09659)" fill="#3f3d56"/><path d="M312.47148,603.83822a.99572.99572,0,0,0,.58619-1.80119,137.23562,137.23562,0,0,0-30.29678-15.42272c-16.71527-6.11957-42.13334-11.66736-68.30079-3.33918a.99561.99561,0,1,0,.60386,1.89745c25.63134-8.157,50.58865-2.701,67.01221,3.31195A134.98165,134.98165,0,0,1,311.88692,603.648.99182.99182,0,0,0,312.47148,603.83822Z" transform="translate(-188.64294 -152.09659)" fill="#3f3d56"/><path d="M358.72689,486.23633a.99572.99572,0,0,0-1.7543-.71437,137.235,137.235,0,0,0-17.5645,29.10744c-7.30743,16.23118-14.6713,41.18372-8.24919,67.883a.99561.99561,0,1,0,1.936-.46564c-6.29-26.15222.94918-50.65181,8.12924-66.59971A134.98107,134.98107,0,0,1,358.495,486.80568.99182.99182,0,0,0,358.72689,486.23633Z" transform="translate(-188.64294 -152.09659)" fill="#3f3d56"/><rect x="245.04655" y="284.60765" width="102.42963" height="2.00021" transform="translate(-192.73735 -147.7876) rotate(-0.82761)" fill="#e6e6e6"/><path d="M349.56849,289.785a4.96712,4.96712,0,1,1,2.187.5083A4.9683,4.9683,0,0,1,349.56849,289.785Zm1.21436-7.33105a2.97976,2.97976,0,0,0-1.71924,1.52148v.00049a3.0069,3.0069,0,1,0,1.71924-1.522Z" transform="translate(-188.64294 -152.09659)" fill="#e6e6e6"/><circle cx="26.35706" cy="134.90341" r="18" fill="#3f3d56"/><rect x="865.73853" y="188.39294" width="2.00021" height="102.42963" transform="translate(425.99378 950.6985) rotate(-89.17239)" fill="#e6e6e6"/><path d="M811.2445,244.2933a5.00883,5.00883,0,1,1,2.187-.5083A5.0049,5.0049,0,0,1,811.2445,244.2933Zm-.00684-8.00439a3.00231,3.00231,0,1,0,2.69873,1.687v-.00049a3.00743,3.00743,0,0,0-2.69873-1.68652Z" transform="translate(-188.64294 -152.09659)" fill="#e6e6e6"/><circle cx="759.35706" cy="88.90341" r="18" fill="#3f3d56"/><rect x="689.77092" y="339.36776" width="102.42963" height="2.00021" transform="translate(75.73371 849.90102) rotate(-78.90411)" fill="#e6e6e6"/><path d="M746.26748,284.92729a5.00883,5.00883,0,1,1,.11031,2.2426A5.00516,5.00516,0,0,1,746.26748,284.92729Zm7.87742,1.42012a3.0023,3.0023,0,1,0-2.14106,2.35479l.00048.00008a3.00741,3.00741,0,0,0,2.14058-2.35487Z" transform="translate(-188.64294 -152.09659)" fill="#e6e6e6"/><circle cx="536.4874" cy="267.98297" r="18" fill="#3f3d56"/></svg>