<svg xmlns="http://www.w3.org/2000/svg" viewBox="0 0 913.03 1046.09"><defs><style>.cls-1{fill:#f0f0f0;}.cls-2{fill:#ffc3be;}.cls-3,.cls-5{fill:none;stroke-linecap:round;stroke-linejoin:round;stroke-width:3.19px;}.cls-3{stroke:#000000;}.cls-4{fill:#3b3744;}.cls-5{stroke:#ffc3be;}.cls-6{fill:#fff;}.cls-7{fill:#ecc953;}.cls-8{fill:#ff697c;}.cls-9{fill:#000000;}</style></defs><title>drawkit-grape-pack-illustration-19</title><g id="Layer_2" data-name="Layer 2"><g id="vector"><path class="cls-1" d="M817.25,72.83c80.79,55.83,110.19,185.06,89.25,290S814.08,548.28,749.36,606.65C684.43,665,626.06,701,556.47,742c-69.58,41.24-150.58,87.56-247,89.89-96.23,2.32-207.9-39.34-263.53-120.77C-9.92,629.7-9.71,508.73,19.27,401.07c28.76-107.65,86.29-202,166.45-258S368.87,69.44,486.47,51.89,736.25,16.78,817.25,72.83Z"/><polyline class="cls-2" points="236.09 756.61 119.92 681.78 113.2 819.8 236.09 756.61"/><rect class="cls-3" x="234.37" y="1.6" width="505.45" height="841.49"/><path class="cls-4" d="M328.32,555.08c-14.92,10.4-130.64,121.15-131.55,144.2S232,920.78,237.91,929.37h55.6s-5-190.76-.9-195.73,156-89.51,156-89.51S399.29,508.52,328.32,555.08Z"/><circle class="cls-5" cx="60.87" cy="383.66" r="36.96"/><circle class="cls-5" cx="108.78" cy="181.05" r="17.07"/><path class="cls-3" d="M416.48,630.5l-83.09-102s91.75-62.33,148.72-62.06c3.77,7.51,144.57,272,200.28,376.67"/><line class="cls-3" x1="589.62" y1="843.09" x2="462.38" y2="686.86"/><path class="cls-3" d="M217.56,653c-15.54,18-26.51,33.24-26.79,40.27-.9,23.06,35.26,221.5,41.14,230.09h55.6s-5-190.76-.9-195.73,156-89.51,156-89.51-49.27-135.61-120.24-89c-6.62,4.61-33.05,28.95-60.51,56.63"/><line class="cls-3" x1="207.83" y1="923.37" x2="320.36" y2="923.37"/><line class="cls-3" x1="206.82" y1="946.35" x2="319.34" y2="946.35"/><path class="cls-6" d="M296.25,952.35c-.58,8.68-2,24.09-2,24.09l18.27,44-137.87,25.69L248.58,987l-7.71-34.65"/><polyline class="cls-3" points="227.29 993.22 242.58 981 234.87 946.35"/><path class="cls-3" d="M290.24,946.35c-.57,8.68-2,24.09-2,24.09l18.27,44-137.87,25.69,31.73-25.36"/><path class="cls-4" d="M687.2,843.08c-57.71-108.4-193.39-363.3-197.09-370.67-57-.27-148.72,62.06-148.72,62.06L592.73,843.08Z"/><path class="cls-6" d="M201.53,388.66c-1,12.55-5.09,74.3-5.09,79.72s-58.35,73.62-63.78,74.3-37.28-11.92-40.43-11.92-33.5,6.3-38.47,6-1,9.45,17.74,9.29l-9.66-1c-4.77.64-5.71,1-10.05,1s-2.18,11.11,23.36,11.11c4.82,4.73,0,7.38,18.92,11.89s37.83,11.11,41.83,8.68c7.38-7.49,16.48-16.36,32.1-17.39,12.53-7.59,83.42-79.95,84.85-84s2.81-63.51,2.81-63.51S242.57,362.9,201.53,388.66Z"/><path class="cls-6" d="M569.66,486.55c-14.17-14.5-19.86-31-22.49-39.21C541.62,440.71,451.1,366.27,446,364s-54.06-18.48-54.06-18.48L413,282.79c7,3.55,53.76,28,59.88,32.57s98.34,115.42,100.6,118,18.74,4.79,20,9.67c3.87,15.16,17.41,29.37,32.89,38.55.29,4.29,1.9,19.51-20.84,26.69a85.48,85.48,0,0,1-35.81-21.72"/><path class="cls-7" d="M215.4,102.08c48,0,71.08,62,78,74,27,47,82,59,82,111,0,14-132,45-140,45s-19-26-19-63c0-34-48-40-48-97C168.4,128.08,174.4,102.08,215.4,102.08Z"/><path class="cls-3" d="M70.15,552.13c-25.54,0-27.7-11.11-23.36-11.11s5.28-.34,10.05-1l9.66,1c-18.74.16-22.72-9.62-17.75-9.29s35.33-6,38.48-6,35,12.6,40.43,11.92,63.78-68.87,63.78-74.3,4.07-67.17,5.09-79.72"/><path class="cls-3" d="M203.75,517c-17.8,18-34.9,34.79-37.93,36.82-6.64,4.44-14.13,2.3-19.27,5.72S134.34,573,129.2,573s-36.62-8.78-48.62-10.7,6.64-12.52,27-8.51"/><path class="cls-3" d="M250.66,447.08c0,7.08-1.53,21.65-2.81,24.22-.29.56-4.09,4.65-9.92,10.74"/><path class="cls-3" d="M520.45,371.12c23.8,28.26,46.86,56,48,57.24,2.26,2.58,18.74,4.79,20,9.67,3.87,15.16,17.41,29.37,32.88,38.55"/><path class="cls-3" d="M408,277.79c7,3.55,53.76,28,59.88,32.57,1.7,1.24,10,10.61,21.09,23.58"/><path class="cls-3" d="M564.29,480.34c11.09,11.19,24.42,19.69,36.18,22.93"/><path class="cls-3" d="M383.28,340.49C392.39,343.24,434,354.85,443,360s95.3,71,99.63,85.76a71.27,71.27,0,0,0,8.18,17.75"/><path class="cls-3" d="M586.9,471c4.75,4.41,25.76,15.59,36.94,20"/><path class="cls-3" d="M592,487.56c6.15,4.15,10.38,6,21.56,10.36"/><path class="cls-3" d="M341.16,226.18c16.36,14.93,29.24,30.73,29.24,55.9,0,14-132,45-140,45s-19-26-19-63c0-34-48-40-48-97a246.32,246.32,0,0,1,1-25.18"/><path class="cls-3" d="M196.07,98.39a71.25,71.25,0,0,1,14.33-1.31c48,0,71.08,62,78,74,6.75,11.75,15.25,21.31,24.2,29.86"/><path class="cls-8" d="M233.18,299.88c-24.47-6-42.92,60.56-41.89,87.93,14.52,16,46.87,16.8,55,15.76S233.18,299.88,233.18,299.88Z"/><path class="cls-3" d="M187.8,363.19a106.91,106.91,0,0,0-1.51,19.62c14.52,16,46.87,16.8,55,15.76s-13.07-103.69-13.07-103.69c-14.57-3.58-27,18.57-34.46,42.86"/><path class="cls-8" d="M257.22,264.26C327.05,233,420.56,352.93,491.11,472.41c-8.9,19.39-125.52,88-164.29,87.39C290.59,518.81,159.35,308.12,257.22,264.26Z"/><path class="cls-3" d="M301,532c-19.84-28.1-47.06-73.28-66-119.3"/><path class="cls-3" d="M477.14,458.05q2.5,4.18,5,8.36c-6.23,13.58-65.33,51.33-113.5,72.51"/><path class="cls-3" d="M220.32,370.58c-13.78-49.86-11.55-94.64,27.9-112.32C309.89,230.63,390,321,456.51,424.75"/><path class="cls-8" d="M296.83,263.37c14.67-31.16,93.49-1.23,117,14.56,1.93,13.15-17.54,67-28.76,72.26C368.74,348.78,278.59,302.13,296.83,263.37Z"/><path class="cls-6" d="M267.4,204.61c1.45,9.22,11.4,52.76,21.36,65.21-3.32,7.05-17.21,21.36-35.36,16.79-5.08-12-15.56-36.33-18.82-40.56S267.4,204.61,267.4,204.61Z"/><path class="cls-3" d="M244.44,272.33c-5.35-12.39-12.31-28-14.86-31.28-3.26-4.23,32.82-41.44,32.82-41.44,1.45,9.22,11.4,52.76,21.36,65.21-2.31,4.9-9.74,13.32-20.16,16.45"/><ellipse class="cls-6" cx="222.22" cy="184.28" rx="46.52" ry="70.44" transform="translate(-50.14 88.56) rotate(-20.3)"/><path class="cls-3" d="M264.72,217.08c-3.78,13.65-11.69,24.07-23.06,28.27-10.5,3.89-22.21,1.83-33.2-4.74"/><path class="cls-3" d="M203.4,189.08c1,3,1.36,15.14,0,21.07"/><ellipse class="cls-9" cx="189" cy="194.66" rx="2.32" ry="5.78" transform="matrix(0.96, -0.28, 0.28, 0.96, -47.05, 60.89)"/><path class="cls-3" d="M222.88,222.87c2.3-1.56,6.57-7.84,6.7-13.92"/><path class="cls-7" d="M196.4,156.08c6,14,42,31,79,29,0-5-12-49-21-56s-50-29-68-11S196.4,156.08,196.4,156.08Z"/><path class="cls-7" d="M199.4,145.08c0,6-16,53.78-23.51,61.39-8.49-16.39-10.49-62.39-.49-73.39C185,122.56,199.4,145.08,199.4,145.08Z"/><path class="cls-3" d="M192.66,153.41c7.44,11.52,33.38,24.19,62.58,26.47"/><path class="cls-3" d="M189.58,158.18c-3.86,11.84-9.36,26.58-14,35.72"/><circle class="cls-6" cx="252.4" cy="183.08" r="12"/><path class="cls-3" d="M239.46,171.08a12,12,0,1,1,11.36,19.75"/><path class="cls-3" d="M376.81,256.65c13,5.07,24.28,10.75,31,15.28,1.93,13.15-17.54,67-28.76,72.26-2.95-.26-8.29-2-15-4.87"/><path class="cls-3" d="M334.42,323.37c-27.31-17.45-54.36-43.1-43.59-66,7.08-15,29.08-15.85,52.61-10.89"/></g></g></svg>