<svg xmlns="http://www.w3.org/2000/svg" viewBox="0 0 754.97 710.39"><defs><style>.cls-1{fill:#f7f7f7;}.cls-2{fill:#d7e0ff;}.cls-3{fill:#eaf0ff;}.cls-4{fill:#fb5d64;}.cls-5{fill:#f4f7ff;}.cls-13,.cls-6,.cls-7{fill:none;stroke-linecap:round;stroke-linejoin:round;}.cls-6{stroke:#eaf0ff;}.cls-6,.cls-7{stroke-width:3px;}.cls-7{stroke:#b2c3fb;}.cls-8{fill:#cbd7ff;}.cls-9{fill:#b2c3fb;}.cls-10{fill:#3c3744;}.cls-11{fill:#eecb55;}.cls-12{fill:#fff;}.cls-13{stroke:#000000;stroke-width:3.69px;}.cls-14{fill:#46dbc9;}.cls-15{fill:#000000;}</style></defs><title>Asset 1</title><g id="Layer_2" data-name="Layer 2"><g id="Layer_1-2" data-name="Layer 1"><path class="cls-1" d="M682.7,59.9c49.74,61.76,34.55,176.76,26.38,283.59S700.23,549,650.49,616.05c-49.91,67.1-148.55,102.32-237.68,92.8-89.13-9.68-168.58-64.26-247-131.36S9.89,431,12.22,353.83,96.68,201.94,175.13,140.19s153.22-110.5,248-130.53S633-1.85,682.7,59.9"/><rect class="cls-2" x="77.95" y="145.47" width="599.46" height="434.81"/><rect class="cls-3" x="77.95" y="145.47" width="599.46" height="47.68"/><path class="cls-4" d="M569.7,169.31a11.86,11.86,0,1,1-11.85-11.85,11.86,11.86,0,0,1,11.85,11.85"/><path class="cls-4" d="M615.26,169.31a11.86,11.86,0,1,1-11.86-11.85,11.86,11.86,0,0,1,11.86,11.85"/><path class="cls-4" d="M660.82,169.31A11.86,11.86,0,1,1,649,157.46a11.86,11.86,0,0,1,11.86,11.85"/><path class="cls-5" d="M602.84,250.39c-6.24,0-7.89,12.38-19,12.38H518.33v65.85H623.1V250.39Z"/><path class="cls-5" d="M469.18,250.39c-6.24,0-7.89,12.38-19,12.38H384.67v65.85H489.44V250.39Z"/><path class="cls-5" d="M316.52,262.77H251v65.85H355.78V250.39H335.51c-6.23,0-7.88,12.38-19,12.38"/><path class="cls-6" d="M488.12,385.86,462.9,477.69l82.91-16.07Z"/><circle class="cls-6" cx="380.97" cy="584.65" r="31.99"/><circle class="cls-6" cx="422.49" cy="532.85" r="17.01"/><path class="cls-7" d="M232,107.15l94.18,20-119.86,90Z"/><rect class="cls-3" x="583.84" y="369.87" width="171.13" height="253.79"/><path class="cls-8" d="M722.76,448a53.36,53.36,0,1,1-53.35-53.36A53.36,53.36,0,0,1,722.76,448"/><rect class="cls-9" x="602.92" y="525.72" width="132.98" height="29.23"/><rect class="cls-9" x="602.92" y="575.66" width="132.98" height="29.23"/><path class="cls-10" d="M38,556.79c-.26,5.75-4.5,46.9-9.68,62.44,17.35-2.29,111.9-21,140.34-37.44-2.26-15.38-122.35-26.6-130.66-25"/><path class="cls-11" d="M94.36,249a25.7,25.7,0,1,1-25.7-25.7A25.69,25.69,0,0,1,94.36,249"/><path class="cls-11" d="M174.71,293.56c1.83-.86,4.49-6.65,4.49-15.23C179.2,257,163,247,137.09,247c-18.09,0-39.41,6.76-53,32.14C73.94,298,69.81,339.64,61.34,354.62c-5.36,9.47-16.73,28.65-25.46,46.69-3.28,4.58-19.77,39.52,5.41,51s142.11,6.76,145.22,1.83S172.14,414,166.39,406.87s-14-16.2-9.3-51.27.45-55.74,4.48-57.41,8.92-1.77,13.14-4.63"/><path class="cls-12" d="M109.72,318.1a10.91,10.91,0,1,1-10.91-10.91,10.92,10.92,0,0,1,10.91,10.91"/><path class="cls-13" d="M33.86,552.66c-.26,5.75-4.5,46.9-9.68,62.44"/><path class="cls-12" d="M275.58,382.64c8.45-13.38,6-28.81,2.37-24.06-1.21,1.59-17,33.58-20.15,36.83l0,0c-2.45.08-4.4.4-5.22,1.07-3.2,2.6-2,20.82-3.2,22.42s-46.85,71.68-48.86,73.88c-.2.8-6-26.22-7.77-31-4.56,3.68-15.91,10.19-19.33,11.3.39,3.09,2.31,41.29,0,53.7,1.94,3.84,13.66,15.48,18.64,15.48,9.59,0,19.79-3.69,22.47-5.54,11.19-7.68,54.37-106.85,57.53-108.91,6.31-4.14,16.82-18.42,18.29-27.46,0-4,3.28-6.61-14.8-17.74"/><path class="cls-14" d="M148.11,396.32c28.17-9.2,53.8,54.76,51.8,59.92S169.47,476.82,163.27,476s-26.1-76.13-15.16-79.7"/><path class="cls-13" d="M144,392.19c28.17-9.2,53.8,54.77,51.8,59.92s-30.44,20.58-36.64,19.78S133,395.76,144,392.19Z"/><path class="cls-14" d="M114.2,380.33c79.73,1.87,59.59,179.94,55.93,186.3-4.93,8.56-107,16.33-131.34-7.55-5.63-5.52-.28-180.52,75.41-178.75"/><path class="cls-13" d="M100.83,376.9a45.75,45.75,0,0,1,9.24-.69c24.5.57,39.57,17.78,48.59,41.54"/><path class="cls-13" d="M170.4,482.18c2.16,40.37-2.77,77.48-4.4,80.32-4.93,8.56-107,16.33-131.34-7.55-5.12-5-1.16-150.34,56.61-175.17"/><path class="cls-12" d="M168,273.86c.16,9.9-68.85,19.27-69.23,33.33s-.61,22.18-.61,22.18c2.47,13.11-2.88,59.46-4.39,64.3,5.79,5.39,34.83,5,38,1.74-.41-3.26-.35-25.46.48-28h0a28.08,28.08,0,0,0,3.68.25c22.21,0,40.22-26.21,40.22-58.55,0-16.9-.28-21.37-8.13-35.28"/><path class="cls-14" d="M73.05,385.74c30.87,9.59,12.39,84.37,6.49,87.32S15.82,459.49,14.64,453s19.08-79.49,58.41-67.26"/><path class="cls-13" d="M86.28,420.15c-.25,22.73-7.55,47.12-10.87,48.78-5.9,2.95-63.72-13.57-64.9-20.06-.35-1.91,1.15-9.55,4.45-19.09"/><path class="cls-13" d="M31.22,397.88c9.46-12.54,22.08-21.13,37.7-16.27a18.8,18.8,0,0,1,3.64,1.55"/><path class="cls-13" d="M218.34,455.82c12.69-19.32,26.29-40.13,26.94-41,1.2-1.6,0-19.82,3.2-22.42s23.6,0,23.6,2.32-8.33,10-10.37,10.57"/><path class="cls-13" d="M188.87,458.33c1.77,4.79,7.35,31.18,7.55,30.38.51-.57,3.86-5.54,8.59-12.66"/><path class="cls-13" d="M271.45,378.51c8.45-13.38,6-28.81,2.37-24.06-1.21,1.59-17,33.58-20.15,36.83"/><path class="cls-13" d="M274.27,382c-1.13,2.14-6.31,10.77-6.31,10.77"/><path class="cls-13" d="M279.81,385.41a104.08,104.08,0,0,1-7.73,14.34"/><path class="cls-13" d="M284.78,389.13a134.24,134.24,0,0,1-8.84,16.16"/><path class="cls-13" d="M271.39,420.88a24.35,24.35,0,0,1-3.43,2.83c-3.16,2.07-46.34,101.23-57.53,108.92-2.68,1.84-12.88,5.53-22.47,5.53-5,0-15.63-10-17.56-13.81"/><path class="cls-13" d="M286.25,396.25c-.61,3.77-2.8,8.45-5.59,12.93"/><path class="cls-13" d="M163,342.05c-7.38,13.13-18.59,21.51-31.15,21.51-8,0-15.49-3.42-21.77-9.31"/><path class="cls-13" d="M163.89,269.73A77,77,0,0,1,172,305a83,83,0,0,1-2,18.35"/><path class="cls-13" d="M100.83,322.91a10.89,10.89,0,1,1-1.94-19"/><path class="cls-15" d="M134.07,301.67c0,2.31-1,4.19-2.28,4.19s-2.27-1.88-2.27-4.19,1-4.2,2.27-4.2,2.28,1.88,2.28,4.2"/><path class="cls-13" d="M154.84,321.26a10.67,10.67,0,0,0,1.4,2.1"/><path class="cls-13" d="M152.61,308.36a28.74,28.74,0,0,0,.83,9.14"/><path class="cls-13" d="M121.28,329.54c.44,2.94,3.68,6.76,8.23,8.23"/><path class="cls-13" d="M127.64,391.28c-.41-3.26-.35-25.46.48-28"/><path class="cls-13" d="M92.44,369.87c-1,9.85-2.2,17.81-2.78,19.67,2.3,2.14,8.25,3.36,14.8,3.86"/><path class="cls-13" d="M94.05,325.25c1,5.09.74,15.19,0,25.93"/><path class="cls-13" d="M45.51,262.15a25.69,25.69,0,0,1,11.27-41.78"/><path class="cls-13" d="M88.21,234.88a25.72,25.72,0,0,1-29.79,35"/><path class="cls-13" d="M154.19,245.81c13.2,4.4,20.88,13.73,20.88,28.39,0,8.58-2.66,14.37-4.5,15.23"/><path class="cls-13" d="M64.53,328.78c4.52-18.23,8.61-41.15,15.41-53.82,12.75-23.79,32.28-31.21,49.58-32"/><path class="cls-13" d="M31.75,397.18c6-12.41,13.26-25.37,19-35.32"/><path class="cls-13" d="M152.31,383.16c.43,3.95,1.08,7.26,2,9.06"/><path class="cls-13" d="M152.53,355.19c-.73,2.53-1.09,10.68-.83,18.83"/><path class="cls-13" d="M166.58,263.21c0,20.73-71.92,22.6-71.92,39.85"/><path class="cls-3" d="M202.69,566.38c6.93,1.16,10.88-10.25,15.1-9.64,3.08.44,17.81,2.33,18.46,3.35s-1.76,11.64-1.76,11.64"/><rect class="cls-3" x="143.64" y="542.31" width="65.98" height="106.26" transform="translate(-439.87 670.82) rotate(-80.45)"/><path class="cls-13" d="M224.34,603.42l-4.92,29.24-60.76-10.22"/><path class="cls-13" d="M230.37,567.6l-2.06,12.23"/><path class="cls-13" d="M124.18,616.64,114.63,615l11-65.07,89.23,15"/><path class="cls-13" d="M198.56,562.25c6.93,1.16,10.89-10.25,15.1-9.64,3.08.44,17.81,2.33,18.46,3.35s-1.76,11.64-1.76,11.64"/><rect class="cls-4" x="194.42" y="581.23" width="28.17" height="15.44" transform="translate(-406.88 696.82) rotate(-80.45)"/><path class="cls-13" d="M134.61,567.6l59.83,10.06"/><path class="cls-13" d="M183.27,588.85l8.9,1.5"/><path class="cls-13" d="M132.35,580.29l34.37,5.78"/><path class="cls-12" d="M199.58,570.41c-1.56-12-5.17-24.74-30.68-23.64C165.45,544,98.45,525,58.05,514.52c4.7-9.71,10.18-39.3,10.46-42-3-.56-47.27-14.18-47.27-14.18S2.73,535.74,6.75,542.21c24.77,15.78,117.69,27.15,159.64,24.2,2.94,2.31,2.54,3.76,6.71,4.35s26.48-.35,26.48-.35"/><path class="cls-13" d="M119.64,528.35c23.88,6.84,43.31,12.81,45.12,14.29,25.53-1.1,29.13,11.59,30.69,23.64"/><path class="cls-13" d="M64.38,468.43c-.29,2.66-5.77,32.25-10.46,42,14.06,3.63,31.35,8.3,48.06,13"/><path class="cls-13" d="M173.36,555a36.3,36.3,0,0,1,1.25,12.65"/><path class="cls-13" d="M181.06,555a35.83,35.83,0,0,1,1.25,12.65"/><path class="cls-13" d="M187.27,555a36.08,36.08,0,0,1,1.24,12.65"/><path class="cls-13" d="M3.65,518.32c-1.75,10.78-2.49,18.84-1,19.76,34.63,22,139.29,25.44,159.64,24.2"/><path class="cls-13" d="M17.11,454.25c-.38,1.34-3.95,16.34-7.54,33.31"/></g></g></svg>