<?xml version="1.0" encoding="utf-8"?>
<!-- Generator: Adobe Illustrator 22.1.0, SVG Export Plug-In . SVG Version: 6.00 Build 0)  -->
<svg version="1.1" id="Layer_1" xmlns="http://www.w3.org/2000/svg" xmlns:xlink="http://www.w3.org/1999/xlink" x="0px" y="0px"
	 viewBox="0 0 290 354.2" style="enable-background:new 0 0 290 354.2;" xml:space="preserve">
<style type="text/css">
	.st0{fill:#E4EBFB;}
	.st1{fill:#FFFFFF;}
	.st2{fill:#494CF3;}
	.st3{fill:#0F046C;}
	.st4{fill:#020204;}
	.st5{fill:#D0D1FF;}
	.st6{fill:#FF847C;}
</style>
<g>
	<g>
		<g>
			<path class="st0" d="M90.7,0L90.7,0C61.2,0,37.3,23.9,37.3,53.4V107h53.4c29.5,0,53.4-23.9,53.4-53.4v-0.2
				C144.2,23.9,120.2,0,90.7,0z"/>
			<path class="st0" d="M90.7,123.6H37.3V232c0,29.5,23.9,53.4,53.4,53.4l0,0c29.5,0,53.4-23.9,53.4-53.4v-55
				C144.2,147.5,120.2,123.6,90.7,123.6z"/>
			<path class="st0" d="M214.2,38.2L214.2,38.2c-29.3,0-53.1,23.8-53.1,53.1v88.8c0,29.3,23.8,53.1,53.1,53.1h0
				c29.3,0,53.1-23.8,53.1-53.1V91.3C267.2,62,243.5,38.2,214.2,38.2z"/>
			<path class="st0" d="M214.2,248L214.2,248c-29.3,0-53.1,23.8-53.1,53.1v53.1h53.1c29.3,0,53.1-23.8,53.1-53.1v0
				C267.2,271.8,243.5,248,214.2,248z"/>
		</g>
	</g>
	<g>
		<path class="st1" d="M191.9,293.1c0,1,0.1,1.9,0.2,2.8c-0.6-0.2-1.1-0.4-1.5-0.8c-0.6-0.6-0.9-1.3-0.9-2.2c0-1.3,0.8-2.6,2.5-3.2
			C192,290.9,191.9,292,191.9,293.1z"/>
		<path class="st1" d="M235.2,293c0,0.8-0.3,1.6-0.9,2.2c-0.4,0.4-0.9,0.6-1.5,0.8c0.1-0.9,0.2-1.9,0.2-2.8c0-1.1-0.1-2.3-0.3-3.4
			C234.5,290.3,235.2,291.7,235.2,293z"/>
		<path class="st1" d="M229.8,289.1c0.3,1.3,0.5,2.7,0.5,4.1c0,9.8-8,17.8-17.8,17.8c-9.8,0-17.8-8-17.8-17.8c0-1,0.1-2,0.2-2.9
			c1.9-1.4,6.2-4.8,6.4-6.8C208.5,285.2,225.2,288.2,229.8,289.1z"/>
		<polygon class="st1" points="111.4,81.1 103.8,88.2 103.8,81.1 		"/>
		<path class="st2" d="M207.9,313.2l2.3,5.4l-2.6,16.5h-3.1l-4.7-25.8c0,0,0.1,0.1,0.1,0.1c0.2,0.1,0.4,0.3,0.6,0.4
			c0.1,0.1,0.2,0.1,0.3,0.2c0.2,0.1,0.4,0.3,0.6,0.4c0.1,0.1,0.2,0.1,0.3,0.2c0.2,0.1,0.4,0.3,0.7,0.4c0.1,0,0.2,0.1,0.3,0.1
			c0.3,0.2,0.6,0.3,0.9,0.5c0,0,0.1,0,0.1,0c0.3,0.1,0.6,0.3,0.9,0.4c0.1,0,0.2,0.1,0.3,0.1c0.2,0.1,0.5,0.2,0.7,0.3
			c0.1,0,0.2,0.1,0.4,0.1c0.2,0.1,0.5,0.2,0.7,0.2c0.1,0,0.2,0.1,0.3,0.1c0.2,0.1,0.5,0.1,0.8,0.2
			C207.8,313.2,207.8,313.2,207.9,313.2z"/>
		<path class="st2" d="M225.2,309.3l-4.7,25.8h-3.1l-2.6-16.5l2.3-5.4c0,0,0.1,0,0.1,0c0.3-0.1,0.5-0.1,0.8-0.2
			c0.1,0,0.2-0.1,0.3-0.1c0.2-0.1,0.5-0.1,0.7-0.2c0.1,0,0.2-0.1,0.3-0.1c0.2-0.1,0.5-0.2,0.7-0.3c0.1,0,0.2-0.1,0.3-0.1
			c0.3-0.1,0.5-0.2,0.8-0.4c0.1,0,0.1,0,0.2-0.1c0.3-0.2,0.6-0.3,0.9-0.5c0.1-0.1,0.2-0.1,0.3-0.2c0.2-0.1,0.4-0.2,0.6-0.3
			c0.1-0.1,0.3-0.2,0.4-0.2c0.2-0.1,0.3-0.2,0.5-0.3c0.1-0.1,0.2-0.2,0.4-0.3c0.2-0.1,0.3-0.2,0.5-0.4
			C225,309.4,225.1,309.4,225.2,309.3z"/>
		<path class="st2" d="M113.8,207.2V227c0,2.2-1.8,4-4,4H90.5h-1.6c0.1-0.2,0.1-0.5,0.1-0.8v-17.3c0-1.2-1-2.2-2.2-2.2h-9
			c-1.2,0-2.2,1-2.2,2.2v17.3c0,0.3,0.1,0.5,0.1,0.8h-4.7c-2.2,0-4-1.8-4-4v-19.8c1,0.4,2.3,0.6,3.7,0.6c2.7,0,5-1.8,6.4-3.2
			c1.3,1.8,3.6,3.2,6.6,3.2c3.5,0,5.6-1.6,6.7-3.5c1.2,1.9,3.2,3.5,6.7,3.5c2.9,0,5.2-1.4,6.6-3.2c1.4,1.4,3.7,3.2,6.4,3.2
			C111.6,207.8,112.8,207.6,113.8,207.2z M106.8,220.7v-6.4c0-1-0.8-1.7-1.7-1.7h-6.4c-1,0-1.7,0.8-1.7,1.7v6.4c0,1,0.8,1.7,1.7,1.7
			h6.4C106,222.4,106.8,221.7,106.8,220.7z"/>
		<path class="st3" d="M249.3,121.7c0.4,0.4,0.4,1.1,0.2,1.6c-1.5,2.7-5,4.9-6.4,5.7c-1.3,9.8-6.1,18.8-13.5,25.5
			c-7.3,6.6-16.5,10.2-25.7,10.2c-13.5,0-23.5-9.6-23.9-10c-0.4-0.4-0.5-1.1-0.2-1.7s1-0.8,1.6-0.6c4.9,1.4,10.8,0.9,15.6-1.1
			c-5.7-2.7-7.5-6.8-8.5-11c-0.1-0.5,0-0.9,0.3-1.3c0.3-0.3,0.8-0.5,1.2-0.4c0,0,0.3,0,0.7,0.1c-3.6-3.7-5.3-8.4-4.8-13.6
			c0-0.5,0.3-0.9,0.8-1.1s0.9-0.2,1.3,0.1c0.6,0.3,1.1,0.6,1.6,0.9c-2.8-5.3-3.3-11.8,1.3-16.6c0.3-0.3,0.7-0.5,1.1-0.4
			c0.4,0,0.8,0.3,1,0.6c5.8,9.1,9.3,13.1,21.6,17.2c2-9.4,6.8-14.1,14.5-14.1c7.3,0,10.4,4.2,11.5,6.2c1.3-0.2,3.8-0.7,6.3-1.6
			c0.5-0.2,1.2,0,1.5,0.4c0.4,0.5,0.4,1.1,0.1,1.6c-0.8,1.3-1.6,2.4-2.5,3.3c0.7-0.1,1.4-0.3,1.8-0.4
			C248.3,121.1,248.9,121.3,249.3,121.7z M244.4,124.8c-1.1,0.1-2.1,0.2-2.3,0.3c-0.6,0.1-1.2-0.3-1.4-0.9c-0.2-0.6,0-1.2,0.4-1.6
			c0,0,1.2-0.9,2.5-2.4c-2.1,0.5-3.6,0.7-3.7,0.7c-0.7,0.1-1.3-0.3-1.5-0.9c-0.1-0.2-2-5.5-9.4-5.5c-4.2,0-10,1.4-12,13.4
			c-0.1,0.4-0.3,0.7-0.6,0.9c-0.3,0.2-0.8,0.3-1.1,0.1c-13.5-4.2-17.8-8.4-23.6-17.2c-3.1,4.7-1.1,10.9,2.5,15.2
			c0.4,0.5,0.4,1.1,0.1,1.6c-0.3,0.5-0.9,0.8-1.5,0.6c-0.1,0-1.9-0.4-4.3-1.6c0.2,4.7,2.7,8.8,7.1,11.6c0.5,0.3,0.8,1,0.6,1.6
			c-0.2,0.6-0.7,1-1.3,1c-1.2,0-2.4-0.1-3.3-0.2c1,3.3,3.1,6.4,9.1,8.2c0.5,0.2,0.9,0.6,1,1.2c0.1,0.5-0.2,1.1-0.7,1.4
			c-4.4,2.6-9.8,3.9-15.1,3.6c3.9,2.7,10.4,6,17.9,6c18.3,0,34.3-14.9,36.6-34c0.1-0.5,0.3-0.9,0.7-1.1
			C241.8,126.6,243.1,125.8,244.4,124.8z"/>
		<path class="st2" d="M242.1,125c0.2,0,1.1-0.1,2.3-0.3c-1.3,1-2.6,1.8-3.3,2.2c-0.4,0.2-0.7,0.6-0.7,1.1c-2.2,19-18.3,34-36.6,34
			c-7.5,0-14-3.4-17.9-6c5.3,0.3,10.7-1,15.1-3.6c0.5-0.3,0.7-0.8,0.7-1.4c-0.1-0.5-0.4-1-1-1.2c-6-1.8-8-4.9-9.1-8.2
			c1,0.1,2.1,0.2,3.3,0.2c0.6,0,1.2-0.4,1.3-1c0.2-0.6-0.1-1.2-0.6-1.6c-4.4-2.8-6.9-7-7.1-11.6c2.4,1.2,4.2,1.6,4.3,1.6
			c0.6,0.1,1.2-0.1,1.5-0.6c0.3-0.5,0.3-1.1-0.1-1.6c-3.6-4.4-5.6-10.5-2.5-15.2c5.7,8.8,10,13,23.6,17.2c0.4,0.1,0.8,0.1,1.1-0.1
			c0.3-0.2,0.6-0.6,0.6-0.9c2-12,7.8-13.4,12-13.4c7.4,0,9.3,5.2,9.4,5.5c0.2,0.6,0.8,1,1.5,0.9c0.1,0,1.6-0.2,3.7-0.7
			c-1.4,1.5-2.5,2.4-2.5,2.4c-0.5,0.4-0.7,1-0.4,1.6C240.9,124.8,241.5,125.1,242.1,125z"/>
		<path class="st3" d="M242,330.2c0,2,0,7.5,0,7.5h-29.6v0H183c0,0,0-5.5,0-7.5c0-9.9,6.7-20.5,16.7-21c-3.3-2.6-5.7-6.2-6.9-10.3
			c-1.6-0.2-3-0.8-4-1.7c-1.2-1.1-1.8-2.6-1.8-4.2c0-2.5,1.5-5,4.5-5.9c-0.2-0.4-0.3-0.9-0.3-1.6c0-8,6.1-15.6,9.4-16.8
			c3.3-1.2,9-4.4,10.2-4.4c1.2,0,0.2,2,5.4,2c8.7,0,17.6,9.5,17.6,18.6c0,0.6-0.1,1.4-0.1,2.2c2.8,0.9,4.3,3.4,4.3,5.8
			c0,1.6-0.6,3.1-1.8,4.2c-1,1-2.4,1.6-4,1.7c-1.2,4.1-3.7,7.7-7,10.3C235.3,309.7,242,320.3,242,330.2z M234.3,295.1
			c0.6-0.6,0.9-1.3,0.9-2.2c0-1.3-0.8-2.6-2.5-3.2c0.2,1.1,0.3,2.2,0.3,3.4c0,1-0.1,1.9-0.2,2.8
			C233.4,295.8,233.9,295.5,234.3,295.1z M230.3,293.1c0-1.4-0.2-2.8-0.5-4.1c-4.6-0.8-21.3-3.9-28.5-5.7c-0.2,2-4.4,5.4-6.4,6.8
			c-0.2,1-0.2,1.9-0.2,2.9c0,9.8,8,17.8,17.8,17.8C222.3,310.9,230.3,303,230.3,293.1z M220.4,335.1l4.7-25.8
			c-0.1,0-0.1,0.1-0.2,0.1c-0.2,0.1-0.3,0.2-0.5,0.4c-0.1,0.1-0.2,0.2-0.4,0.3c-0.2,0.1-0.3,0.2-0.5,0.3c-0.1,0.1-0.3,0.2-0.4,0.2
			c-0.2,0.1-0.4,0.2-0.6,0.3c-0.1,0.1-0.2,0.1-0.3,0.2c-0.3,0.2-0.6,0.3-0.9,0.5c-0.1,0-0.1,0.1-0.2,0.1c-0.3,0.1-0.5,0.2-0.8,0.4
			c-0.1,0-0.2,0.1-0.3,0.1c-0.2,0.1-0.5,0.2-0.7,0.3c-0.1,0-0.2,0.1-0.3,0.1c-0.2,0.1-0.5,0.2-0.7,0.2c-0.1,0-0.2,0.1-0.3,0.1
			c-0.3,0.1-0.5,0.1-0.8,0.2c-0.1,0-0.1,0-0.1,0l-2.3,5.4l2.6,16.5H220.4z M210.2,318.6l-2.3-5.4c-0.1,0-0.1,0-0.2,0
			c-0.3-0.1-0.5-0.1-0.8-0.2c-0.1,0-0.2-0.1-0.3-0.1c-0.2-0.1-0.5-0.1-0.7-0.2c-0.1,0-0.2-0.1-0.4-0.1c-0.2-0.1-0.5-0.2-0.7-0.3
			c-0.1,0-0.2-0.1-0.3-0.1c-0.3-0.1-0.6-0.3-0.9-0.4c0,0-0.1,0-0.1,0c-0.3-0.2-0.6-0.3-0.9-0.5c-0.1,0-0.2-0.1-0.3-0.1
			c-0.2-0.1-0.4-0.3-0.7-0.4c-0.1-0.1-0.2-0.1-0.3-0.2c-0.2-0.1-0.4-0.3-0.6-0.4c-0.1-0.1-0.2-0.1-0.3-0.2c-0.2-0.1-0.4-0.3-0.6-0.4
			c0,0-0.1-0.1-0.1-0.1l4.7,25.8h3.1L210.2,318.6z M192.1,296c-0.1-0.9-0.2-1.9-0.2-2.8c0-1.1,0.1-2.3,0.3-3.4
			c-1.7,0.6-2.5,1.9-2.5,3.2c0,0.8,0.3,1.6,0.9,2.2C191,295.5,191.5,295.8,192.1,296z"/>
		<path class="st3" d="M121.9,48.1l-7.5,8.4v24.7c0,0.3-0.1,0.7-0.4,0.9l-9.3,8.6c-0.2,0.2-0.5,0.3-0.8,0.3H66.6
			c-0.7,0-1.2-0.5-1.2-1.2V28.1c0-0.7,0.5-1.2,1.2-1.2h46.6c0.7,0,1.2,0.5,1.2,1.2v20.7l3.7-4.1L121.9,48.1z M111.9,78.7V59.2
			L99.1,73.5c-0.5,0.5-1.2,0.9-1.9,0.9c0,0,0,0,0,0c-0.7,0-1.4-0.3-1.9-0.8l-5.9-6.3H73.1v-4h28.2l2.5-2.8H73.1v-4h33.4v1l5.5-6.1
			V29.3H67.8v59.3h33.5v-8.7c0-0.7,0.5-1.2,1.2-1.2H111.9z M103.8,88.2l7.7-7.1h-7.7V88.2z M97.1,67.9l0.6-0.7h-1.2L97.1,67.9z"/>
		<path class="st3" d="M118.5,194.2v5c0,2.6-0.6,4.7-1.9,6.1V227c0,3.7-3,6.8-6.8,6.8H90.5H71.1c-3.7,0-6.8-3-6.8-6.8v-21.7
			c-1.2-1.4-1.9-3.5-1.9-6.1v-5c0-0.2,0.1-0.5,0.2-0.7l10.1-17.7c0.2-0.4,0.7-0.7,1.2-0.7h16.5H107c0.5,0,1,0.3,1.2,0.7l10.1,17.7
			C118.4,193.7,118.5,193.9,118.5,194.2z M115.7,199.2v-4.6l-9.5-16.7H90.5H74.8l-9.5,16.7v4.6c0,4.1,1.7,5.8,5.5,5.8
			c2.3,0,4.3-2.2,5.1-3.1c-0.1-0.3-0.1-0.7-0.1-1v-7.5c0-0.1,0-0.3,0.1-0.4l2.8-9.6c0.2-0.7,1-1.2,1.7-0.9c0.7,0.2,1.2,1,0.9,1.7
			l-2.7,9.4v7.3c0,1.4,1.8,4.1,5.2,4.1c5.2,0,5.4-5.1,5.4-5.2v-16.1c0-0.8,0.6-1.4,1.4-1.4c0.8,0,1.4,0.6,1.4,1.4v16.1
			c0,0.1,0.1,5.2,5.4,5.2c3.4,0,5.2-2.7,5.2-4.1v-7.3l-2.7-9.4c-0.2-0.7,0.2-1.5,0.9-1.7c0.7-0.2,1.5,0.2,1.7,0.9l2.8,9.6
			c0,0.1,0.1,0.3,0.1,0.4v7.5c0,0.3,0,0.7-0.1,1c1,1.2,3,3.1,5.1,3.1C114.1,205,115.7,203.3,115.7,199.2z M113.8,227v-19.8
			c-1,0.4-2.3,0.6-3.7,0.6c-2.7,0-5-1.8-6.4-3.2c-1.3,1.8-3.6,3.2-6.6,3.2c-3.5,0-5.6-1.6-6.7-3.5c-1.2,1.9-3.2,3.5-6.7,3.5
			c-2.9,0-5.2-1.4-6.6-3.2c-1.4,1.4-3.7,3.2-6.4,3.2c-1.4,0-2.6-0.2-3.7-0.6V227c0,2.2,1.8,4,4,4h4.7c-0.1-0.2-0.1-0.5-0.1-0.8
			v-17.3c0-1.2,1-2.2,2.2-2.2h9c1.2,0,2.2,1,2.2,2.2v17.3c0,0.3-0.1,0.5-0.1,0.8h1.6h19.4C112,231,113.8,229.2,113.8,227z"/>
		<path class="st2" d="M115.7,194.6v4.6c0,4.1-1.7,5.8-5.5,5.8c-2.1,0-4.2-2-5.1-3.1c0.1-0.3,0.1-0.7,0.1-1v-7.5
			c0-0.1,0-0.3-0.1-0.4l-2.8-9.6c-0.2-0.7-1-1.2-1.7-0.9c-0.7,0.2-1.2,1-0.9,1.7l2.7,9.4v7.3c0,1.4-1.8,4.1-5.2,4.1
			c-5.2,0-5.4-5.1-5.4-5.2v-16.1c0-0.8-0.6-1.4-1.4-1.4c-0.8,0-1.4,0.6-1.4,1.4v16.1c0,0.1-0.1,5.2-5.4,5.2c-3.4,0-5.2-2.7-5.2-4.1
			v-7.3l2.7-9.4c0.2-0.7-0.2-1.5-0.9-1.7c-0.7-0.2-1.5,0.2-1.7,0.9l-2.8,9.6c0,0.1-0.1,0.3-0.1,0.4v7.5c0,0.3,0,0.7,0.1,1
			c-0.8,1-2.9,3.1-5.1,3.1c-3.9,0-5.5-1.7-5.5-5.8v-4.6l9.5-16.7h15.7h15.7L115.7,194.6z"/>
		<path class="st2" d="M111.9,59.2v19.5h-9.4c-0.7,0-1.2,0.5-1.2,1.2v8.7H67.8V29.3h44.1v22.2l-5.5,6.1v-1H73.1v4h30.7l-2.5,2.8
			H73.1v4h16.3l5.9,6.3c0.5,0.5,1.2,0.8,1.9,0.8c0,0,0,0,0,0c0.7,0,1.4-0.3,1.9-0.9L111.9,59.2z M106.5,53.8v-4H73.1v4H106.5z
			 M106.5,47v-4h-28v4H106.5z"/>
		<path class="st3" d="M106.8,214.3v6.4c0,1-0.8,1.7-1.7,1.7h-6.4c-1,0-1.7-0.8-1.7-1.7v-6.4c0-1,0.8-1.7,1.7-1.7h6.4
			C106,212.6,106.8,213.3,106.8,214.3z"/>
		<rect x="73.1" y="49.8" class="st3" width="33.4" height="4"/>
		<rect x="78.5" y="43" class="st3" width="28" height="4"/>
		<polygon class="st2" points="97.7,67.2 97.1,67.9 96.5,67.2 		"/>
	</g>
	<g>
		<path class="st4" d="M49.6,137.1l-1.5-1.1c-0.1-0.5-0.4-1-0.9-1.3l-2.3-1.7c0-0.1-0.1-0.3-0.1-0.4l-0.3-4.7c-0.1-1-0.7-1.7-1.6-2
			c-0.2-0.1-0.5-0.1-0.7-0.1l0-0.3c-0.1-1-0.7-1.7-1.6-2c-0.9-0.3-1.9,0.1-2.4,0.8l-2.8,3.8c-0.4,0.6-1.1,0.9-1.8,1l-4.7,0.3
			c-1,0.1-1.7,0.7-2,1.6c-0.3,0.9,0.1,1.9,0.8,2.4l1.5,1.1c0.1,0.5,0.4,1,0.9,1.3l2.3,1.7c0,0.1,0.1,0.3,0.1,0.4l0.3,4.7
			c0.1,1,0.7,1.7,1.6,2c0.2,0.1,0.4,0.1,0.6,0.1c0,0,0.1,0,0.1,0l0,0.3c0.1,1,0.7,1.7,1.6,2c0.2,0.1,0.4,0.1,0.6,0.1
			c0.7,0,1.4-0.3,1.8-0.9l2.8-3.8c0.4-0.6,1.1-0.9,1.8-1l4.7-0.3c1-0.1,1.7-0.7,2-1.6S50.4,137.7,49.6,137.1z"/>
		<path class="st5" d="M46,137.9l-4.7,0.3c-1,0.1-1.8,0.6-2.4,1.3l-2.8,3.8c-0.8,1-2.4,0.6-2.5-0.7l-0.3-4.7c-0.1-1-0.6-1.8-1.3-2.4
			l-3.8-2.8c-1-0.8-0.6-2.4,0.7-2.5l4.7-0.3c1-0.1,1.8-0.6,2.4-1.3l2.8-3.8c0.8-1,2.4-0.6,2.5,0.7l0.3,4.7c0.1,1,0.6,1.8,1.3,2.4
			l3.8,2.8C47.7,136.2,47.3,137.8,46,137.9z"/>
	</g>
	<g>
		<path class="st4" d="M276.2,70.5l-1.5-1.1c-0.1-0.5-0.4-1-0.9-1.3l-2.3-1.7c0-0.1-0.1-0.3-0.1-0.4l-0.3-4.7c-0.1-1-0.7-1.7-1.6-2
			c-0.2-0.1-0.5-0.1-0.7-0.1l0-0.3c-0.1-1-0.7-1.7-1.6-2c-0.9-0.3-1.9,0.1-2.4,0.8l-2.8,3.8c-0.4,0.6-1.1,0.9-1.8,1l-4.7,0.3
			c-1,0.1-1.7,0.7-2,1.6c-0.3,0.9,0.1,1.9,0.8,2.4l1.5,1.1c0.1,0.5,0.4,1,0.9,1.3l2.3,1.7c0,0.1,0.1,0.3,0.1,0.4l0.3,4.7
			c0.1,1,0.7,1.7,1.6,2c0.2,0.1,0.4,0.1,0.6,0.1c0,0,0.1,0,0.1,0l0,0.3c0.1,1,0.7,1.7,1.6,2c0.2,0.1,0.4,0.1,0.6,0.1
			c0.7,0,1.4-0.3,1.8-0.9l2.8-3.8c0.4-0.6,1.1-0.9,1.8-1l4.7-0.3c1-0.1,1.7-0.7,2-1.6C277.3,72,277,71.1,276.2,70.5z"/>
		<path class="st5" d="M272.6,71.3l-4.7,0.3c-1,0.1-1.8,0.6-2.4,1.3l-2.8,3.8c-0.8,1-2.4,0.6-2.5-0.7l-0.3-4.7
			c-0.1-1-0.6-1.8-1.3-2.4l-3.8-2.8c-1-0.8-0.6-2.4,0.7-2.5l4.7-0.3c1-0.1,1.8-0.6,2.4-1.3l2.8-3.8c0.8-1,2.4-0.6,2.5,0.7l0.3,4.7
			c0.1,1,0.6,1.8,1.3,2.4l3.8,2.8C274.3,69.5,273.9,71.2,272.6,71.3z"/>
	</g>
	<g>
		<path class="st4" d="M72.6,254.8c-1.3-1.7-3.3-2.7-5.6-2.7h-7.6c-1.5,0-2.7-0.2-3.7-0.7c-0.6-0.6-1.2-1.3-1.8-2l-0.2-0.2
			c-0.4-0.4-0.9-0.7-1.5-0.7c-0.4-0.4-0.7-0.8-1.1-1.3l-0.2-0.2c-0.4-0.4-0.9-0.7-1.5-0.7c-0.6,0-1.1,0.3-1.5,0.7
			c-2.7,3.4-4.4,5-7.5,5H7.1c-3.9,0-7.1,3.2-7.1,7.1v11.2c0,2.9,1.8,5.4,4.3,6.5c1.3,1.7,3.3,2.7,5.6,2.7h59.9
			c3.9,0,7.1-3.2,7.1-7.1v-11.2C76.9,258.4,75.1,255.9,72.6,254.8z"/>
		<path class="st1" d="M67,253.3h-7.6c-4.6,0-6.4-2.1-9.4-5.5c-0.3-0.3-0.8-0.3-1.1,0c-2.7,3.4-4.7,5.5-8.5,5.5H7.1
			c-3.3,0-5.9,2.7-5.9,5.9v11.2c0,3.3,2.7,5.9,5.9,5.9H67c3.3,0,5.9-2.7,5.9-5.9v-11.2C72.9,256,70.3,253.3,67,253.3z"/>
	</g>
	<g>
		<path class="st4" d="M285.9,190.5c-1.3-1.8-3.4-3-5.8-3h-59.9c-3.9,0-7.1,3.2-7.1,7.1v11.2c0,2.8,1.7,5.3,4.1,6.4
			c1.3,1.8,3.4,3,5.8,3h7.6c1.7,0,2.9,0.3,4,0.9c0.5,0.5,1,1.1,1.5,1.7l0.2,0.2c0.3,0.4,0.8,0.6,1.3,0.6c0.4,0.4,0.8,0.9,1.3,1.5
			l0.2,0.2c0.4,0.4,0.9,0.7,1.5,0.7c0,0,0,0,0,0c0.6,0,1.1-0.3,1.5-0.7c2.7-3.4,4.4-5,7.5-5h33.3c3.9,0,7.1-3.2,7.1-7.1v-11.2
			C290,194.1,288.3,191.6,285.9,190.5z"/>
		<g>
			<path class="st1" d="M220.2,211.8h7.6c4.6,0,6.4,2.1,9.4,5.5c0.3,0.3,0.8,0.3,1.1,0c2.7-3.4,4.7-5.5,8.5-5.5h33.3
				c3.3,0,5.9-2.7,5.9-5.9v-11.2c0-3.3-2.7-5.9-5.9-5.9h-59.9c-3.3,0-5.9,2.7-5.9,5.9v11.2C214.3,209.1,216.9,211.8,220.2,211.8z"/>
		</g>
	</g>
	<g>
		<g>
			<path class="st6" d="M263.2,194.1c3,0,5.5,2.5,5.5,5.5c0,3-2.5,5.5-5.5,5.5c-0.9,0-1.8-0.2-2.7-0.7c-0.1,0-0.2-0.1-0.3,0
				l-2.8,1.2l1-3c0-0.1,0-0.2,0-0.3c-0.5-0.8-0.7-1.7-0.7-2.7C257.7,196.6,260.1,194.1,263.2,194.1z"/>
			<path class="st6" d="M233.7,194.7c1.4,0.4,2.5,1.8,2.5,3.4c0,2.9-5.1,7-6.2,7.8c-1.1-0.8-6.2-4.9-6.2-7.8c0-1.6,1-3.1,2.5-3.4
				c0.2-0.1,0.4-0.1,0.7-0.1c1.1,0,2.1,0.7,2.8,2c0.1,0.2,0.5,0.2,0.6,0C231.2,195,232.4,194.3,233.7,194.7z"/>
			<path class="st4" d="M268.6,199.6c0-3-2.5-5.5-5.5-5.5s-5.5,2.5-5.5,5.5c0,0.9,0.2,1.8,0.7,2.7c0,0.1,0.1,0.2,0,0.3l-1,3l2.8-1.2
				c0.1,0,0.2,0,0.3,0c0.8,0.5,1.7,0.7,2.7,0.7C266.2,205.1,268.6,202.6,268.6,199.6z M263.2,193.4c3.4,0,6.2,2.8,6.2,6.2
				c0,3.4-2.8,6.2-6.2,6.2c-1,0-2-0.2-2.8-0.7l-3.3,1.4c0,0-0.1,0-0.1,0c-0.1,0-0.2,0-0.2-0.1c-0.1-0.1-0.1-0.2-0.1-0.4l1.2-3.6
				c-0.5-0.9-0.7-1.9-0.7-2.9C257,196.2,259.8,193.4,263.2,193.4z"/>
			<path class="st4" d="M236.2,198.1c0-1.6-1.1-3.1-2.5-3.4c-1.3-0.3-2.6,0.3-3.4,1.9c-0.1,0.2-0.5,0.2-0.6,0c-0.7-1.3-1.7-2-2.8-2
				c-0.2,0-0.4,0-0.7,0.1c-1.4,0.4-2.5,1.8-2.5,3.4c0,2.9,5.1,7,6.2,7.8C231.1,205.1,236.2,201.1,236.2,198.1z M236.9,198.1
				c0,3.6-6.4,8.3-6.7,8.5c-0.1,0-0.1,0.1-0.2,0.1c-0.1,0-0.1,0-0.2-0.1c-0.3-0.2-6.7-4.9-6.7-8.5c0-1.9,1.3-3.7,3-4.1
				c1.5-0.4,2.9,0.3,3.9,1.7c1-1.5,2.4-2.1,3.9-1.7C235.7,194.5,236.9,196.2,236.9,198.1z"/>
		</g>
	</g>
	<g>
		<polygon class="st4" points="6.8,262.3 6.8,262.8 7.9,262.5 7.9,268.2 8.7,268.2 8.7,261.7 8.1,261.7 		"/>
		<path class="st4" d="M14,262c-0.4-0.3-0.9-0.4-1.5-0.4c-0.6,0-1.1,0.1-1.5,0.4s-0.7,0.7-0.9,1.2s-0.3,1.1-0.3,1.8
			c0,0.7,0.1,1.3,0.3,1.8c0.2,0.5,0.5,0.9,0.9,1.2s0.9,0.4,1.5,0.4c0.6,0,1.1-0.1,1.5-0.4c0.4-0.3,0.7-0.7,0.9-1.2
			c0.2-0.5,0.3-1.1,0.3-1.8c0-0.7-0.1-1.3-0.3-1.8C14.8,262.7,14.5,262.3,14,262z M14.3,266.4c-0.2,0.4-0.4,0.7-0.7,0.9
			c-0.3,0.2-0.6,0.3-1,0.3c-0.4,0-0.7-0.1-1-0.3c-0.3-0.2-0.5-0.5-0.7-0.9c-0.2-0.4-0.2-0.9-0.2-1.4c0-0.6,0.1-1,0.2-1.4
			c0.2-0.4,0.4-0.7,0.7-0.9c0.3-0.2,0.6-0.3,1-0.3c0.4,0,0.7,0.1,1,0.3c0.3,0.2,0.5,0.5,0.7,0.9c0.2,0.4,0.3,0.9,0.3,1.4
			C14.5,265.5,14.4,266,14.3,266.4z"/>
		<path class="st4" d="M20.4,262c-0.4-0.3-0.9-0.4-1.5-0.4c-0.6,0-1.1,0.1-1.5,0.4s-0.7,0.7-0.9,1.2c-0.2,0.5-0.3,1.1-0.3,1.8
			c0,0.7,0.1,1.3,0.3,1.8c0.2,0.5,0.5,0.9,0.9,1.2s0.9,0.4,1.5,0.4c0.6,0,1.1-0.1,1.5-0.4s0.7-0.7,0.9-1.2c0.2-0.5,0.3-1.1,0.3-1.8
			c0-0.7-0.1-1.3-0.3-1.8C21.2,262.7,20.8,262.3,20.4,262z M20.6,266.4c-0.2,0.4-0.4,0.7-0.7,0.9c-0.3,0.2-0.6,0.3-1,0.3
			c-0.4,0-0.7-0.1-1-0.3c-0.3-0.2-0.5-0.5-0.7-0.9c-0.2-0.4-0.2-0.9-0.2-1.4c0-0.6,0.1-1,0.2-1.4c0.2-0.4,0.4-0.7,0.7-0.9
			c0.3-0.2,0.6-0.3,1-0.3c0.4,0,0.7,0.1,1,0.3c0.3,0.2,0.5,0.5,0.7,0.9c0.2,0.4,0.3,0.9,0.3,1.4C20.9,265.5,20.8,266,20.6,266.4z"/>
		<polygon class="st4" points="25.1,263.5 24.4,263.5 24.4,265.2 22.6,265.2 22.6,265.8 24.4,265.8 24.4,267.5 25.1,267.5 
			25.1,265.8 26.8,265.8 26.8,265.2 25.1,265.2 		"/>
		<path class="st4" d="M34.1,263.7c-0.3-0.2-0.7-0.3-1.2-0.3c-0.3,0-0.5,0-0.8,0.1c-0.2,0.1-0.4,0.2-0.6,0.3
			c-0.2,0.1-0.3,0.3-0.4,0.4l-0.1-0.8h-0.7v6.8h0.8v-2.8c0.2,0.3,0.4,0.5,0.7,0.7c0.3,0.2,0.6,0.2,1,0.2c0.5,0,0.9-0.1,1.2-0.3
			c0.3-0.2,0.6-0.5,0.8-0.9c0.2-0.4,0.3-0.8,0.3-1.3c0-0.5-0.1-0.9-0.3-1.3C34.7,264.2,34.4,263.9,34.1,263.7z M34.2,266.8
			c-0.1,0.3-0.3,0.5-0.6,0.6c-0.2,0.1-0.5,0.2-0.8,0.2c-0.3,0-0.6-0.1-0.8-0.2c-0.2-0.1-0.4-0.4-0.6-0.6c-0.1-0.3-0.2-0.6-0.2-0.9
			c0-0.4,0.1-0.7,0.2-0.9c0.1-0.3,0.3-0.5,0.6-0.6c0.2-0.1,0.5-0.2,0.8-0.2c0.3,0,0.6,0.1,0.8,0.2c0.2,0.1,0.4,0.4,0.6,0.6
			c0.1,0.3,0.2,0.6,0.2,0.9C34.4,266.2,34.3,266.5,34.2,266.8z"/>
		<path class="st4" d="M37.4,263.9c-0.2,0.1-0.3,0.3-0.4,0.5l-0.1-0.9h-0.7v4.7H37v-2.4c0-0.3,0-0.5,0.1-0.8s0.2-0.4,0.3-0.5
			c0.1-0.1,0.3-0.2,0.5-0.3c0.2-0.1,0.4-0.1,0.6-0.1h0.3v-0.8c-0.3,0-0.6,0-0.8,0.1C37.8,263.6,37.6,263.7,37.4,263.9z"/>
		<path class="st4" d="M42.9,263.7c-0.3-0.2-0.7-0.3-1.2-0.3c-0.4,0-0.8,0.1-1.2,0.3s-0.6,0.5-0.8,0.9c-0.2,0.4-0.3,0.8-0.3,1.3
			c0,0.5,0.1,0.9,0.3,1.3c0.2,0.4,0.5,0.7,0.8,0.9c0.3,0.2,0.7,0.3,1.2,0.3c0.4,0,0.8-0.1,1.2-0.3c0.3-0.2,0.6-0.5,0.8-0.9
			c0.2-0.4,0.3-0.8,0.3-1.3c0-0.5-0.1-0.9-0.3-1.3C43.5,264.2,43.2,263.9,42.9,263.7z M43,266.8c-0.1,0.3-0.3,0.5-0.6,0.6
			c-0.2,0.1-0.5,0.2-0.7,0.2c-0.3,0-0.5-0.1-0.7-0.2c-0.2-0.1-0.4-0.3-0.6-0.6c-0.1-0.3-0.2-0.6-0.2-1c0-0.4,0.1-0.7,0.2-1
			c0.1-0.3,0.3-0.5,0.6-0.6c0.2-0.1,0.5-0.2,0.7-0.2c0.3,0,0.5,0.1,0.8,0.2c0.2,0.1,0.4,0.3,0.6,0.6c0.1,0.3,0.2,0.6,0.2,1
			C43.2,266.2,43.1,266.6,43,266.8z"/>
		<path class="st4" d="M48.8,264.3c-0.2-0.3-0.4-0.5-0.7-0.7s-0.6-0.2-1-0.2c-0.5,0-0.9,0.1-1.2,0.3c-0.3,0.2-0.6,0.5-0.8,0.9
			s-0.3,0.8-0.3,1.3c0,0.5,0.1,0.9,0.3,1.3c0.2,0.4,0.5,0.7,0.8,0.9c0.3,0.2,0.7,0.3,1.2,0.3c0.3,0,0.5,0,0.8-0.1
			c0.2-0.1,0.4-0.2,0.6-0.3c0.2-0.1,0.3-0.3,0.4-0.4l0.1,0.8h0.7v-6.7h-0.8V264.3z M48.6,266.8c-0.1,0.3-0.3,0.5-0.6,0.6
			c-0.2,0.1-0.5,0.2-0.8,0.2c-0.3,0-0.6-0.1-0.8-0.2c-0.2-0.1-0.4-0.4-0.6-0.6c-0.1-0.3-0.2-0.6-0.2-0.9c0-0.4,0.1-0.7,0.2-0.9
			c0.1-0.3,0.3-0.5,0.6-0.6c0.2-0.1,0.5-0.2,0.8-0.2c0.3,0,0.6,0.1,0.8,0.2c0.2,0.1,0.4,0.4,0.6,0.6c0.1,0.3,0.2,0.6,0.2,0.9
			C48.8,266.2,48.8,266.5,48.6,266.8z"/>
		<path class="st4" d="M54.2,266c0,0.4-0.1,0.7-0.2,0.9c-0.1,0.2-0.3,0.4-0.5,0.6c-0.2,0.1-0.4,0.2-0.7,0.2c-0.4,0-0.7-0.1-0.9-0.4
			c-0.2-0.2-0.3-0.6-0.3-1.1v-2.7h-0.8v2.8c0,0.4,0.1,0.8,0.2,1.1c0.1,0.3,0.4,0.5,0.6,0.7c0.3,0.1,0.6,0.2,0.9,0.2
			c0.4,0,0.7-0.1,1-0.2c0.3-0.2,0.5-0.4,0.6-0.7l0,0.8H55v-4.7h-0.8V266z"/>
		<path class="st4" d="M57.6,264.3c0.2-0.1,0.5-0.2,0.7-0.2c0.3,0,0.6,0.1,0.9,0.2c0.2,0.2,0.4,0.4,0.5,0.7h0.8
			c-0.1-0.5-0.3-0.9-0.7-1.2c-0.4-0.3-0.8-0.4-1.4-0.4c-0.4,0-0.8,0.1-1.2,0.3c-0.4,0.2-0.6,0.5-0.8,0.9c-0.2,0.4-0.3,0.8-0.3,1.3
			c0,0.5,0.1,0.9,0.3,1.3c0.2,0.4,0.5,0.7,0.8,0.9c0.4,0.2,0.7,0.3,1.2,0.3c0.6,0,1-0.1,1.4-0.4c0.4-0.3,0.6-0.7,0.7-1.2h-0.8
			c0,0.2-0.1,0.4-0.3,0.5c-0.1,0.1-0.3,0.3-0.5,0.3c-0.2,0.1-0.4,0.1-0.6,0.1c-0.2,0-0.4,0-0.6-0.1c-0.2-0.1-0.3-0.2-0.5-0.3
			c-0.1-0.1-0.2-0.3-0.3-0.6c-0.1-0.2-0.1-0.5-0.1-0.8c0-0.4,0.1-0.7,0.2-1C57.2,264.6,57.4,264.4,57.6,264.3z"/>
		<path class="st4" d="M62.8,262.4h-0.7l-0.1,1.1h-0.8v0.7H62v2.6c0,0.4,0.1,0.6,0.2,0.8c0.1,0.2,0.3,0.4,0.5,0.4
			c0.2,0.1,0.4,0.1,0.7,0.1h0.7v-0.7h-0.5c-0.3,0-0.5-0.1-0.6-0.2c-0.1-0.1-0.2-0.3-0.2-0.6v-2.6h1.4v-0.7h-1.4V262.4z"/>
		<path class="st4" d="M67.8,265.7c-0.3-0.1-0.5-0.2-0.8-0.2c-0.2,0-0.4-0.1-0.6-0.2c-0.2-0.1-0.3-0.2-0.4-0.2s-0.1-0.2-0.1-0.3
			c0-0.2,0.1-0.3,0.2-0.5c0.2-0.1,0.4-0.2,0.7-0.2c0.3,0,0.5,0.1,0.7,0.2c0.2,0.1,0.3,0.3,0.3,0.6h0.8c-0.1-0.5-0.2-0.8-0.6-1.1
			s-0.7-0.4-1.2-0.4c-0.3,0-0.6,0.1-0.9,0.2c-0.3,0.1-0.5,0.3-0.6,0.5c-0.1,0.2-0.2,0.4-0.2,0.7c0,0.2,0,0.4,0.1,0.6
			c0.1,0.1,0.2,0.3,0.4,0.4c0.2,0.1,0.3,0.2,0.5,0.2c0.2,0.1,0.4,0.1,0.6,0.1c0.2,0,0.5,0.1,0.6,0.2c0.2,0.1,0.3,0.1,0.4,0.2
			c0.1,0.1,0.1,0.2,0.1,0.4c0,0.1,0,0.3-0.1,0.4c-0.1,0.1-0.2,0.2-0.3,0.3c-0.1,0.1-0.3,0.1-0.5,0.1c-0.2,0-0.5,0-0.6-0.1
			c-0.2-0.1-0.3-0.2-0.4-0.3c-0.1-0.1-0.2-0.3-0.2-0.4h-0.8c0,0.3,0.1,0.6,0.3,0.8c0.2,0.2,0.4,0.4,0.7,0.5c0.3,0.1,0.6,0.2,1,0.2
			c0.4,0,0.7-0.1,0.9-0.2c0.3-0.1,0.5-0.3,0.6-0.5c0.1-0.2,0.2-0.5,0.2-0.8c0-0.3-0.1-0.6-0.2-0.8C68.3,265.9,68.1,265.8,67.8,265.7
			z"/>
		<path class="st4" d="M245,197.1h-0.9l-3.2,4.5v0.6h3.3v1.4h0.8v-1.4h1v-0.7h-1V197.1z M244.3,201.5h-2.5l2.5-3.6V201.5z"/>
		<path class="st4" d="M250.4,199.7c-0.3-0.2-0.7-0.3-1-0.3c-0.3,0-0.6,0-0.8,0.1c-0.2,0.1-0.5,0.2-0.6,0.4
			c-0.2,0.2-0.3,0.3-0.4,0.5c0,0,0,0,0,0c0,0,0,0,0,0c0-0.6,0.1-1.2,0.3-1.6c0.2-0.4,0.4-0.7,0.6-0.9c0.3-0.2,0.6-0.3,0.9-0.3
			c0.4,0,0.7,0.1,0.9,0.3c0.2,0.2,0.4,0.5,0.5,0.8h0.7c0-0.3-0.1-0.6-0.3-0.9c-0.2-0.3-0.4-0.5-0.7-0.6c-0.3-0.2-0.6-0.2-1.1-0.2
			c-0.5,0-1,0.2-1.4,0.5c-0.4,0.3-0.7,0.7-0.9,1.3c-0.2,0.5-0.3,1.2-0.3,1.9c0,0.4,0,0.8,0.1,1.1c0.1,0.4,0.2,0.7,0.4,1
			c0.2,0.3,0.5,0.5,0.8,0.7c0.3,0.2,0.7,0.3,1.2,0.3c0.5,0,0.9-0.1,1.2-0.3c0.3-0.2,0.6-0.5,0.8-0.8c0.2-0.3,0.3-0.7,0.3-1.1
			c0-0.4-0.1-0.8-0.3-1.1C251,200.1,250.7,199.8,250.4,199.7z M250.5,202.3c-0.1,0.2-0.3,0.4-0.5,0.5c-0.2,0.1-0.5,0.2-0.8,0.2
			s-0.5-0.1-0.8-0.2c-0.2-0.1-0.4-0.3-0.5-0.5c-0.1-0.2-0.2-0.5-0.2-0.7c0-0.3,0.1-0.5,0.2-0.7c0.1-0.2,0.3-0.4,0.5-0.5
			c0.2-0.1,0.5-0.2,0.8-0.2s0.5,0.1,0.8,0.2c0.2,0.1,0.4,0.3,0.5,0.5s0.2,0.5,0.2,0.8C250.7,201.8,250.6,202.1,250.5,202.3z"/>
		<path class="st4" d="M278.2,200.4c-0.2-0.3-0.5-0.6-0.8-0.7c-0.3-0.2-0.7-0.3-1-0.3c-0.3,0-0.6,0-0.8,0.1
			c-0.2,0.1-0.5,0.2-0.6,0.4c-0.2,0.2-0.3,0.3-0.4,0.5c0,0,0,0,0,0c0,0,0,0,0,0c0-0.6,0.1-1.2,0.3-1.6c0.2-0.4,0.4-0.7,0.6-0.9
			c0.3-0.2,0.6-0.3,0.9-0.3c0.4,0,0.7,0.1,0.9,0.3c0.2,0.2,0.4,0.5,0.5,0.8h0.7c0-0.3-0.1-0.6-0.3-0.9c-0.2-0.3-0.4-0.5-0.7-0.6
			c-0.3-0.2-0.6-0.2-1.1-0.2c-0.5,0-1,0.2-1.4,0.5c-0.4,0.3-0.7,0.7-0.9,1.3c-0.2,0.5-0.3,1.2-0.3,1.9c0,0.4,0,0.8,0.1,1.1
			c0.1,0.4,0.2,0.7,0.4,1c0.2,0.3,0.5,0.5,0.8,0.7c0.3,0.2,0.7,0.3,1.2,0.3c0.5,0,0.9-0.1,1.2-0.3c0.3-0.2,0.6-0.5,0.8-0.8
			c0.2-0.3,0.3-0.7,0.3-1.1C278.5,201.1,278.4,200.7,278.2,200.4z M277.5,202.3c-0.1,0.2-0.3,0.4-0.5,0.5c-0.2,0.1-0.5,0.2-0.8,0.2
			c-0.3,0-0.5-0.1-0.8-0.2c-0.2-0.1-0.4-0.3-0.5-0.5c-0.1-0.2-0.2-0.5-0.2-0.7c0-0.3,0.1-0.5,0.2-0.7c0.1-0.2,0.3-0.4,0.5-0.5
			c0.2-0.1,0.5-0.2,0.8-0.2c0.3,0,0.5,0.1,0.8,0.2c0.2,0.1,0.4,0.3,0.5,0.5c0.1,0.2,0.2,0.5,0.2,0.8
			C277.7,201.8,277.7,202.1,277.5,202.3z"/>
	</g>
</g>
</svg>
